<svg xmlns="http://www.w3.org/2000/svg" xmlns:xlink="http://www.w3.org/1999/xlink" width="940" zoomAndPan="magnify" viewBox="0 0 705 591.000005" height="788" preserveAspectRatio="xMidYMid meet" version="1.0"><defs><clipPath id="b878380749"><path d="M 260 177 L 444 177 L 444 412.851562 L 260 412.851562 Z M 260 177 " clip-rule="nonzero"/></clipPath></defs><g clip-path="url(#b878380749)"><path fill="#000000" d="M 429.792969 385.445312 C 423.355469 377.875 421.992188 367.277344 422.988281 357.6875 C 424.1875 346.179688 429.058594 335.429688 432.90625 324.632812 C 434.863281 319.132812 436.640625 313.53125 437.507812 307.765625 C 438.347656 302.101562 438.539062 296.417969 438.085938 290.710938 C 437.195312 279.101562 434.039062 267.710938 429.726562 256.894531 C 429.203125 255.574219 428.65625 254.261719 428.09375 252.953125 C 428.050781 252.851562 427.988281 252.765625 427.90625 252.6875 C 428.5625 251.722656 429.136719 250.714844 429.632812 249.660156 C 432.535156 243.429688 432.367188 236.339844 431.738281 229.652344 C 431.230469 223.414062 430.367188 217.226562 429.136719 211.089844 C 427.867188 205.1875 425.945312 199.339844 422.792969 194.160156 C 422.011719 192.875 421.15625 191.640625 420.21875 190.464844 C 419.28125 189.285156 418.277344 188.171875 417.199219 187.121094 C 416.121094 186.070312 414.980469 185.089844 413.777344 184.183594 C 412.574219 183.277344 411.320312 182.449219 410.011719 181.703125 C 408.703125 180.953125 407.355469 180.292969 405.964844 179.714844 C 404.570312 179.140625 403.148438 178.652344 401.695312 178.257812 C 400.242188 177.859375 398.769531 177.554688 397.277344 177.347656 C 395.785156 177.136719 394.285156 177.019531 392.777344 177 C 389.792969 176.988281 386.855469 177.351562 383.960938 178.082031 C 381.070312 178.816406 378.316406 179.898438 375.699219 181.332031 C 373.085938 182.75 370.683594 184.464844 368.5 186.480469 C 367.4375 187.460938 366.449219 188.507812 365.523438 189.617188 C 364.511719 190.800781 363.664062 192.070312 362.746094 193.3125 C 361.976562 194.449219 360.984375 195.339844 359.773438 195.988281 L 359.570312 196.078125 L 359.214844 196.210938 C 358.929688 196.304688 358.636719 196.382812 358.339844 196.441406 L 358.15625 196.476562 L 358.027344 196.476562 L 357.773438 196.503906 C 357.46875 196.53125 357.164062 196.542969 356.859375 196.539062 C 355.71875 196.515625 354.601562 196.347656 353.507812 196.03125 C 352.234375 195.710938 350.980469 195.300781 349.730469 194.902344 C 347.199219 194.09375 344.601562 193.28125 341.921875 193.253906 C 340.679688 193.222656 339.472656 193.410156 338.296875 193.8125 C 337.121094 194.21875 336.054688 194.816406 335.09375 195.605469 C 331.367188 198.671875 330.132812 204.046875 330.773438 208.644531 C 331.554688 214.199219 335.566406 218.699219 339.835938 222.019531 C 342.226562 223.84375 344.714844 225.523438 347.296875 227.066406 C 350.40625 228.976562 353.519531 230.878906 356.640625 232.777344 L 366.222656 238.621094 C 367.417969 239.347656 368.910156 240.070312 369.675781 241.203125 C 370.445312 242.339844 370.339844 243.835938 370.085938 245.167969 C 369.621094 247.425781 368.925781 249.613281 368.003906 251.726562 L 368.003906 251.769531 L 367.9375 251.917969 L 367.75 252.347656 C 367.613281 252.660156 367.472656 252.96875 367.332031 253.277344 C 367.058594 253.867188 366.777344 254.457031 366.484375 255.039062 C 365.886719 256.25 365.253906 257.445312 364.589844 258.621094 C 361.933594 263.367188 358.871094 267.835938 355.402344 272.027344 C 354.007812 273.722656 352.507812 275.320312 350.898438 276.816406 C 350.78125 276.9375 350.695312 277.070312 350.632812 277.226562 C 350.570312 277.378906 350.542969 277.539062 350.542969 277.703125 C 350.542969 277.871094 350.574219 278.027344 350.640625 278.179688 C 350.703125 278.332031 350.792969 278.46875 350.910156 278.585938 C 351.027344 278.703125 351.164062 278.792969 351.316406 278.859375 C 351.46875 278.921875 351.628906 278.953125 351.792969 278.957031 C 351.960938 278.957031 352.121094 278.929688 352.273438 278.867188 C 352.429688 278.804688 352.566406 278.71875 352.683594 278.605469 C 356.292969 275.296875 359.332031 271.347656 362.105469 267.339844 C 365.207031 262.941406 367.851562 258.289062 370.042969 253.375 C 371 251.265625 371.761719 249.089844 372.324219 246.847656 C 372.558594 245.921875 372.714844 244.980469 372.785156 244.027344 C 379.285156 244.464844 385.785156 244.476562 392.285156 244.054688 C 394.148438 243.933594 396 243.777344 397.851562 243.585938 C 398.417969 247.511719 399.9375 251.027344 402.40625 254.136719 C 406.007812 258.535156 411.636719 261.292969 417.375 260.191406 C 420.8125 259.527344 423.835938 257.535156 426.183594 254.933594 C 430.539062 265.238281 433.90625 276.128906 435.210938 287.234375 C 435.894531 292.859375 435.96875 298.496094 435.433594 304.136719 C 434.859375 309.902344 433.359375 315.460938 431.519531 320.945312 C 427.839844 331.871094 422.832031 342.511719 420.957031 353.960938 C 419.371094 363.640625 419.894531 374.210938 424.910156 382.871094 C 427.292969 386.984375 430.75 390.121094 434.140625 393.378906 C 437.0625 396.191406 440.5 399.4375 441.191406 403.636719 C 441.304688 404.332031 441.324219 405.027344 441.257812 405.730469 C 435.785156 407.199219 430.242188 408.324219 424.628906 409.105469 C 421.726562 409.511719 418.804688 409.804688 415.882812 410.011719 C 413.109375 410.203125 410.234375 410.484375 407.464844 410.277344 C 406.425781 410.269531 405.492188 409.953125 404.660156 409.339844 C 403.804688 408.601562 403.546875 407.402344 403.394531 406.308594 C 402.976562 403.417969 402.789062 400.476562 402.492188 397.570312 L 400.609375 379.199219 C 399.40625 367.449219 398.300781 355.683594 396.980469 343.949219 C 395.96875 335.070312 394.632812 326.09375 391.488281 317.703125 C 388.453125 309.550781 383.566406 302.058594 376.164062 297.226562 C 368.070312 291.941406 357.949219 290.808594 348.605469 292.574219 C 338.902344 294.40625 330.238281 299.417969 323.132812 306.171875 C 315.914062 313.035156 310.34375 321.484375 305.792969 330.285156 C 300.691406 340.191406 296.628906 350.503906 293.601562 361.21875 C 290.527344 372.078125 288.546875 383.132812 287.660156 394.378906 C 287.488281 396.589844 287.371094 398.800781 287.285156 401.011719 C 283.78125 399.921875 280.507812 398.128906 278.230469 395.167969 C 275.953125 392.203125 274.789062 388.605469 274.386719 385.027344 C 273.878906 380.617188 274.503906 376.1875 275.464844 371.90625 C 276.503906 367.242188 277.859375 362.65625 278.921875 358 C 281.070312 348.53125 282.488281 338.953125 283.171875 329.273438 C 283.507812 324.597656 283.726562 319.894531 283.625 315.210938 C 283.527344 310.996094 283.082031 306.671875 281.484375 302.734375 C 280.792969 300.921875 279.832031 299.269531 278.597656 297.773438 C 277.363281 296.277344 275.925781 295.015625 274.28125 293.988281 C 271.242188 292.148438 267.492188 291.25 263.996094 292.148438 C 263.128906 292.378906 262.300781 292.707031 261.515625 293.132812 C 260.082031 293.90625 261.359375 296.085938 262.796875 295.316406 C 264.191406 294.566406 265.679688 294.230469 267.261719 294.304688 C 268.859375 294.394531 270.378906 294.792969 271.816406 295.496094 C 273.382812 296.273438 274.769531 297.292969 275.976562 298.558594 C 277.179688 299.828125 278.128906 301.261719 278.824219 302.863281 C 280.511719 306.554688 280.972656 310.714844 281.089844 314.730469 C 281.226562 319.320312 281.011719 323.9375 280.703125 328.519531 C 280.066406 338.046875 278.699219 347.46875 276.605469 356.785156 C 275.570312 361.410156 274.234375 365.96875 273.171875 370.597656 C 272.160156 374.96875 271.421875 379.503906 271.769531 384.007812 C 272.074219 387.894531 273.089844 391.800781 275.175781 395.136719 C 276.292969 396.875 277.660156 398.390625 279.269531 399.683594 C 280.882812 400.980469 282.660156 401.988281 284.601562 402.707031 C 285.5625 403.085938 286.542969 403.410156 287.542969 403.675781 C 287.710938 403.722656 287.878906 403.738281 288.050781 403.714844 C 288.195312 403.773438 288.34375 403.8125 288.496094 403.828125 C 307.882812 405.757812 327.308594 406.28125 346.769531 405.402344 C 349.144531 405.289062 351.519531 405.164062 353.886719 405.011719 C 355.710938 404.933594 357.511719 404.710938 359.296875 404.335938 C 362.835938 403.523438 366.613281 401.238281 367.464844 397.464844 C 367.640625 396.703125 367.675781 395.9375 367.582031 395.167969 C 367.484375 394.394531 367.257812 393.660156 366.90625 392.96875 C 366.550781 392.277344 366.085938 391.664062 365.515625 391.132812 C 364.949219 390.601562 364.304688 390.183594 363.585938 389.878906 C 361.292969 388.867188 358.761719 388.714844 356.398438 387.917969 C 355.460938 387.636719 354.664062 387.128906 354.011719 386.40625 C 352.960938 385.101562 353.023438 383.375 353.347656 381.828125 C 354.257812 377.421875 355.679688 373.152344 357.03125 368.871094 C 359.480469 361.148438 361.628906 353.226562 360.347656 345.09375 C 359.613281 340.34375 357.515625 335.359375 353.972656 331.945312 C 354.859375 330.335938 355.644531 328.679688 356.328125 326.976562 C 357.070312 325.144531 357.726562 323.277344 358.375 321.421875 C 358.910156 319.882812 356.46875 319.222656 355.9375 320.753906 C 354.84375 323.875 353.671875 327.277344 352.046875 330.375 C 351.195312 329.773438 350.289062 329.269531 349.332031 328.863281 C 343.835938 326.570312 336.65625 327.851562 332.457031 332.128906 C 330.378906 334.246094 328.320312 337.988281 330.570312 340.679688 C 331.664062 341.980469 333.699219 342.617188 335.320312 342.886719 C 337.214844 343.203125 339.101562 343.15625 340.976562 342.742188 C 346.167969 341.640625 349.898438 338.285156 352.648438 334.125 C 355.574219 337.15625 357.238281 341.566406 357.894531 345.554688 C 359.125 353.027344 357.058594 360.441406 354.828125 367.523438 C 353.570312 371.53125 352.230469 375.519531 351.289062 379.636719 C 350.824219 381.65625 350.332031 383.675781 350.902344 385.691406 C 351.230469 386.914062 351.867188 387.941406 352.8125 388.78125 C 354.628906 390.347656 357.050781 390.761719 359.328125 391.25 C 361.351562 391.679688 363.601562 392.152344 364.640625 393.980469 C 366.429688 397.140625 363.394531 400.273438 360.589844 401.378906 C 357.175781 402.738281 353.195312 402.621094 349.589844 402.808594 C 331.390625 403.761719 313.214844 403.484375 295.058594 401.976562 C 293.304688 401.828125 291.554688 401.660156 289.8125 401.496094 C 290.207031 390.515625 291.671875 379.679688 294.203125 368.988281 C 296.734375 358.296875 300.289062 347.953125 304.859375 337.957031 C 309.003906 328.945312 313.933594 320.144531 320.46875 312.625 C 326.800781 305.328125 334.683594 299.273438 343.992188 296.328125 C 352.804688 293.546875 362.8125 293.347656 371.285156 297.375 C 379.15625 301.113281 384.628906 308.023438 388.050781 315.871094 C 391.5625 323.945312 393.109375 332.785156 394.164062 341.449219 C 395.550781 352.753906 396.535156 364.117188 397.703125 375.441406 C 398.316406 381.457031 398.929688 387.476562 399.550781 393.496094 C 399.863281 396.523438 400.175781 399.550781 400.480469 402.582031 C 400.734375 405.058594 400.640625 408.101562 402.132812 410.226562 C 403.574219 412.269531 406.058594 412.777344 408.417969 412.8125 C 411.257812 412.851562 414.125 412.644531 416.953125 412.421875 C 422.839844 411.964844 428.675781 411.132812 434.453125 409.925781 C 437.234375 409.34375 439.996094 408.667969 442.738281 407.90625 C 443.207031 407.78125 443.5 407.488281 443.621094 407.023438 C 445.269531 397.472656 435.136719 391.722656 429.792969 385.445312 Z M 423.972656 253.574219 C 422.234375 255.464844 420.132812 256.777344 417.667969 257.507812 C 416.464844 257.835938 415.238281 257.960938 413.992188 257.886719 C 412.742188 257.808594 411.542969 257.535156 410.386719 257.0625 C 407.984375 256.054688 405.960938 254.539062 404.316406 252.519531 C 402.582031 250.402344 401.390625 248.019531 400.734375 245.363281 C 399.085938 238.988281 400.257812 232.242188 401.867188 225.984375 C 403.5 219.628906 405.789062 213.515625 408.734375 207.652344 C 410.167969 204.800781 411.742188 202.027344 413.457031 199.332031 C 414.332031 197.960938 412.144531 196.695312 411.273438 198.0625 C 407.617188 203.8125 404.609375 209.882812 402.253906 216.273438 C 401.097656 219.40625 400.113281 222.597656 399.296875 225.835938 C 398.414062 229.199219 397.824219 232.609375 397.527344 236.070312 C 397.402344 237.753906 397.402344 239.4375 397.527344 241.117188 C 390.875 241.789062 384.210938 242.007812 377.527344 241.773438 C 375.863281 241.71875 374.199219 241.628906 372.535156 241.511719 C 372.144531 240.207031 371.402344 239.144531 370.308594 238.324219 C 368.9375 237.328125 367.515625 236.417969 366.039062 235.585938 L 361.378906 232.742188 L 351.980469 226.96875 C 346.957031 223.898438 341.644531 220.984375 337.632812 216.621094 C 336.71875 215.640625 335.914062 214.582031 335.214844 213.441406 C 334.84375 212.828125 334.507812 212.199219 334.203125 211.554688 C 334.152344 211.453125 334.109375 211.351562 334.066406 211.246094 C 334.066406 211.214844 333.980469 211.027344 333.964844 210.988281 C 333.863281 210.726562 333.773438 210.484375 333.6875 210.183594 C 333.527344 209.640625 333.394531 209.085938 333.292969 208.523438 C 333.292969 208.402344 333.253906 208.289062 333.238281 208.167969 L 333.210938 207.949219 C 333.175781 207.667969 333.15625 207.378906 333.140625 207.089844 C 333.109375 206.519531 333.109375 205.945312 333.140625 205.371094 C 333.140625 205.109375 333.183594 204.839844 333.210938 204.578125 C 333.210938 204.527344 333.210938 204.480469 333.210938 204.429688 L 333.210938 204.367188 C 333.242188 204.203125 333.269531 204.042969 333.296875 203.859375 C 333.394531 203.324219 333.523438 202.792969 333.6875 202.269531 C 333.769531 202.003906 333.859375 201.738281 333.957031 201.472656 L 334.085938 201.140625 C 334.121094 201.070312 334.152344 201 334.183594 200.921875 C 334.414062 200.429688 334.675781 199.953125 334.96875 199.492188 C 335.105469 199.277344 335.25 199.078125 335.390625 198.871094 C 335.410156 198.851562 335.421875 198.835938 335.433594 198.8125 L 335.480469 198.761719 L 335.773438 198.414062 C 336.125 198.023438 336.507812 197.660156 336.921875 197.324219 L 336.964844 197.285156 L 337.023438 197.246094 C 337.132812 197.171875 337.238281 197.09375 337.34375 197.023438 C 337.585938 196.867188 337.832031 196.722656 338.082031 196.59375 C 338.183594 196.539062 338.285156 196.488281 338.386719 196.441406 L 338.542969 196.367188 C 338.796875 196.269531 339.050781 196.179688 339.3125 196.105469 C 339.578125 196.027344 339.820312 195.96875 340.082031 195.917969 L 340.34375 195.871094 L 340.53125 195.871094 C 340.640625 195.871094 340.75 195.871094 340.863281 195.839844 C 343.351562 195.648438 345.601562 196.3125 348.046875 197.074219 C 350.488281 197.835938 352.957031 198.714844 355.542969 199.011719 C 356.804688 199.1875 358.050781 199.109375 359.28125 198.777344 C 360.511719 198.445312 361.625 197.882812 362.625 197.09375 C 363.789062 196.039062 364.792969 194.847656 365.628906 193.519531 C 366.433594 192.375 367.308594 191.285156 368.257812 190.253906 C 370.160156 188.191406 372.289062 186.398438 374.648438 184.871094 C 377.003906 183.34375 379.515625 182.136719 382.179688 181.238281 C 384.832031 180.335938 387.558594 179.789062 390.359375 179.601562 C 393.160156 179.417969 395.933594 179.59375 398.6875 180.140625 C 401.488281 180.699219 404.175781 181.597656 406.746094 182.839844 C 409.316406 184.085938 411.6875 185.628906 413.863281 187.476562 C 418.222656 191.328125 421.460938 195.960938 423.578125 201.371094 C 425.8125 206.878906 427.042969 212.734375 427.90625 218.589844 C 428.332031 221.484375 428.664062 224.441406 428.972656 227.390625 C 429.386719 230.753906 429.589844 234.128906 429.585938 237.515625 C 429.589844 240.800781 429.058594 243.996094 427.988281 247.105469 C 427.089844 249.535156 425.75 251.691406 423.972656 253.574219 Z M 344.589844 338.695312 C 341.78125 340.285156 338.300781 341.085938 335.121094 340.277344 C 333.878906 339.964844 331.863281 339.355469 332.082031 337.71875 C 332.316406 336.589844 332.796875 335.582031 333.53125 334.691406 C 336.761719 330.503906 343.207031 329.261719 348.03125 331.03125 C 349.015625 331.402344 349.933594 331.894531 350.789062 332.511719 C 349.242188 335.09375 347.175781 337.152344 344.589844 338.695312 Z M 344.589844 338.695312 " fill-opacity="1" fill-rule="nonzero"/></g></svg>