<svg xmlns="http://www.w3.org/2000/svg" xmlns:xlink="http://www.w3.org/1999/xlink" width="500" zoomAndPan="magnify" viewBox="0 0 375 374.999991" height="500" preserveAspectRatio="xMidYMid meet" version="1.0"><defs><g/><clipPath id="6cf105302d"><path d="M 95.425781 95.425781 L 279.925781 95.425781 L 279.925781 279.925781 L 95.425781 279.925781 Z M 95.425781 95.425781 " clip-rule="nonzero"/></clipPath><clipPath id="0ca87ea802"><path d="M 101.691406 101.691406 L 273.441406 101.691406 L 273.441406 273.441406 L 101.691406 273.441406 Z M 101.691406 101.691406 " clip-rule="nonzero"/></clipPath><clipPath id="89115d6703"><path d="M 128.242188 128.242188 L 246.742188 128.242188 L 246.742188 246.742188 L 128.242188 246.742188 Z M 128.242188 128.242188 " clip-rule="nonzero"/></clipPath><clipPath id="7e50f76e60"><path d="M 134.394531 134.394531 L 240.894531 134.394531 L 240.894531 240.894531 L 134.394531 240.894531 Z M 134.394531 134.394531 " clip-rule="nonzero"/></clipPath><clipPath id="28bfff07e1"><path d="M 161 147.71875 L 214 147.71875 L 214 174 L 161 174 Z M 161 147.71875 " clip-rule="nonzero"/></clipPath><clipPath id="0b0bb818d3"><path d="M 161 219 L 176 219 L 176 227.21875 L 161 227.21875 Z M 161 219 " clip-rule="nonzero"/></clipPath><clipPath id="cf34dfeacc"><path d="M 199 219 L 214 219 L 214 227.21875 L 199 227.21875 Z M 199 219 " clip-rule="nonzero"/></clipPath><clipPath id="0207d001df"><path d="M 173 207 L 188 207 L 188 227.21875 L 173 227.21875 Z M 173 207 " clip-rule="nonzero"/></clipPath><clipPath id="2882cc295b"><path d="M 173 226 L 176 226 L 176 227.21875 L 173 227.21875 Z M 173 226 " clip-rule="nonzero"/></clipPath><clipPath id="acfad692df"><path d="M 187 207 L 202 207 L 202 227.21875 L 187 227.21875 Z M 187 207 " clip-rule="nonzero"/></clipPath><clipPath id="8a0c0208c4"><path d="M 197 226 L 201 226 L 201 227.21875 L 197 227.21875 Z M 197 226 " clip-rule="nonzero"/></clipPath><clipPath id="870bb02a54"><path d="M 212 173 L 218.875 173 L 218.875 175 L 212 175 Z M 212 173 " clip-rule="nonzero"/></clipPath><clipPath id="213d4008ba"><path d="M 155.875 173 L 163 173 L 163 175 L 155.875 175 Z M 155.875 173 " clip-rule="nonzero"/></clipPath><clipPath id="fd9a9e988b"><path d="M 103.089844 183 L 110 183 L 110 190 L 103.089844 190 Z M 103.089844 183 " clip-rule="nonzero"/></clipPath><clipPath id="84cf4dbf16"><path d="M 120.035156 183.972656 L 126.339844 183.972656 L 126.339844 190.167969 L 120.035156 190.167969 Z M 120.035156 183.972656 " clip-rule="nonzero"/></clipPath><clipPath id="7dbfaa9a09"><path d="M 109.492188 187.148438 L 120.382812 187.148438 L 120.382812 195.960938 L 109.492188 195.960938 Z M 109.492188 187.148438 " clip-rule="nonzero"/></clipPath><clipPath id="04b220b913"><path d="M 248.257812 183 L 255 183 L 255 190 L 248.257812 190 Z M 248.257812 183 " clip-rule="nonzero"/></clipPath><clipPath id="f3c91d644a"><path d="M 265.199219 183.972656 L 271.507812 183.972656 L 271.507812 190.167969 L 265.199219 190.167969 Z M 265.199219 183.972656 " clip-rule="nonzero"/></clipPath><clipPath id="69f2757df9"><path d="M 254.660156 187.148438 L 265.546875 187.148438 L 265.546875 195.960938 L 254.660156 195.960938 Z M 254.660156 187.148438 " clip-rule="nonzero"/></clipPath></defs><g clip-path="url(#6cf105302d)"><path fill="#ff914d" d="M 187.675781 95.425781 C 136.730469 95.425781 95.425781 136.730469 95.425781 187.675781 C 95.425781 238.625 136.730469 279.925781 187.675781 279.925781 C 238.625 279.925781 279.925781 238.625 279.925781 187.675781 C 279.925781 136.730469 238.625 95.425781 187.675781 95.425781 " fill-opacity="1" fill-rule="nonzero"/></g><g clip-path="url(#0ca87ea802)"><path fill="#fff6f0" d="M 187.566406 101.691406 C 140.136719 101.691406 101.691406 140.136719 101.691406 187.566406 C 101.691406 234.992188 140.136719 273.441406 187.566406 273.441406 C 234.992188 273.441406 273.441406 234.992188 273.441406 187.566406 C 273.441406 140.136719 234.992188 101.691406 187.566406 101.691406 " fill-opacity="1" fill-rule="nonzero"/></g><g clip-path="url(#89115d6703)"><path fill="#ff914d" d="M 187.492188 128.242188 C 154.769531 128.242188 128.242188 154.769531 128.242188 187.492188 C 128.242188 220.214844 154.769531 246.742188 187.492188 246.742188 C 220.214844 246.742188 246.742188 220.214844 246.742188 187.492188 C 246.742188 154.769531 220.214844 128.242188 187.492188 128.242188 " fill-opacity="1" fill-rule="nonzero"/></g><g clip-path="url(#7e50f76e60)"><path fill="#fff6f0" d="M 187.644531 134.394531 C 158.234375 134.394531 134.394531 158.234375 134.394531 187.644531 C 134.394531 217.054688 158.234375 240.894531 187.644531 240.894531 C 217.054688 240.894531 240.894531 217.054688 240.894531 187.644531 C 240.894531 158.234375 217.054688 134.394531 187.644531 134.394531 " fill-opacity="1" fill-rule="nonzero"/></g><g clip-path="url(#28bfff07e1)"><path fill="#964716" d="M 164.101562 167.621094 L 164.164062 167.445312 L 164.085938 167.273438 C 160.890625 160.476562 163.140625 150.789062 163.671875 148.757812 C 165.265625 148.992188 171.394531 150.167969 175.234375 154.71875 L 175.46875 154.996094 L 175.796875 154.835938 C 176.902344 154.292969 178.058594 153.835938 179.226562 153.46875 C 179.296875 153.445312 179.359375 153.425781 179.425781 153.402344 C 179.320312 153.273438 179.203125 153.144531 179.082031 153.019531 C 180.015625 152.71875 180.984375 152.46875 181.964844 152.273438 C 182.011719 152.421875 182.050781 152.578125 182.089844 152.726562 C 183.179688 152.507812 184.308594 152.359375 185.429688 152.277344 C 185.453125 152.277344 185.480469 152.277344 185.503906 152.273438 L 185.402344 151.808594 C 186.054688 151.761719 186.71875 151.738281 187.382812 151.738281 C 188.050781 151.738281 188.710938 151.761719 189.363281 151.808594 L 189.261719 152.273438 C 189.285156 152.273438 189.304688 152.273438 189.335938 152.277344 C 190.464844 152.359375 191.585938 152.507812 192.671875 152.726562 C 192.714844 152.578125 192.753906 152.421875 192.800781 152.273438 C 193.785156 152.46875 194.746094 152.71875 195.679688 153.019531 C 195.558594 153.144531 195.449219 153.273438 195.335938 153.402344 C 195.40625 153.425781 195.472656 153.445312 195.535156 153.46875 C 196.707031 153.835938 197.855469 154.300781 198.960938 154.835938 L 199.289062 154.996094 L 199.523438 154.71875 C 203.367188 150.167969 209.492188 148.992188 211.085938 148.757812 C 211.617188 150.789062 213.867188 160.476562 210.671875 167.273438 L 210.59375 167.445312 L 210.65625 167.621094 C 211.28125 169.449219 211.628906 171.351562 211.699219 173.273438 C 212.007812 173.285156 212.320312 173.296875 212.632812 173.308594 C 212.566406 171.328125 212.226562 169.378906 211.601562 167.496094 C 215.195312 159.585938 212.019531 148.574219 211.882812 148.101562 L 211.773438 147.734375 L 211.386719 147.769531 C 211.074219 147.796875 203.738281 148.550781 199.054688 153.835938 C 198.003906 153.339844 196.921875 152.914062 195.824219 152.570312 C 194.871094 152.265625 193.886719 152.011719 192.890625 151.8125 C 191.75 151.582031 190.578125 151.425781 189.398438 151.339844 C 188.714844 151.296875 188.039062 151.273438 187.382812 151.273438 C 186.722656 151.273438 186.046875 151.296875 185.367188 151.339844 C 184.191406 151.425781 183.019531 151.582031 181.878906 151.8125 C 180.882812 152.011719 179.890625 152.265625 178.945312 152.570312 C 177.851562 152.921875 176.765625 153.339844 175.714844 153.835938 C 171.03125 148.542969 163.695312 147.796875 163.382812 147.769531 L 162.996094 147.734375 L 162.886719 148.101562 C 162.75 148.574219 159.574219 159.585938 163.167969 167.496094 C 162.546875 169.378906 162.203125 171.328125 162.136719 173.308594 C 162.449219 173.296875 162.761719 173.28125 163.070312 173.273438 C 163.136719 171.351562 163.484375 169.449219 164.101562 167.621094 Z M 164.101562 167.621094 " fill-opacity="1" fill-rule="nonzero"/></g><path fill="#964716" d="M 210.804688 179.539062 C 209.722656 182.605469 207.667969 185.132812 204.652344 187.09375 C 200.40625 189.847656 194.429688 191.308594 187.375 191.308594 C 180.320312 191.308594 174.347656 189.847656 170.097656 187.09375 C 167.085938 185.132812 165.03125 182.605469 163.949219 179.539062 C 163.757812 179.628906 163.5625 179.722656 163.375 179.8125 C 163.289062 179.851562 163.203125 179.898438 163.117188 179.9375 C 164.285156 183.15625 166.46875 185.851562 169.589844 187.878906 C 169.816406 188.027344 170.058594 188.171875 170.300781 188.316406 C 170.308594 188.210938 170.320312 188.101562 170.339844 188 L 171.261719 188.132812 C 171.234375 188.355469 171.210938 188.585938 171.191406 188.816406 C 175.429688 191.0625 180.980469 192.246094 187.375 192.246094 C 193.773438 192.246094 199.316406 191.0625 203.558594 188.816406 C 203.542969 188.585938 203.519531 188.351562 203.492188 188.132812 L 204.414062 188 C 204.429688 188.101562 204.441406 188.207031 204.453125 188.316406 C 204.695312 188.171875 204.929688 188.027344 205.164062 187.878906 C 208.285156 185.851562 210.464844 183.164062 211.632812 179.9375 C 211.550781 179.898438 211.464844 179.851562 211.378906 179.8125 C 211.1875 179.722656 210.992188 179.628906 210.804688 179.539062 Z M 210.804688 179.539062 " fill-opacity="1" fill-rule="nonzero"/><path fill="#964716" d="M 211.0625 178.738281 C 211.292969 178.882812 211.519531 179.027344 211.75 179.179688 C 211.789062 179.210938 211.824219 179.238281 211.863281 179.265625 C 212.355469 177.699219 212.613281 176.011719 212.632812 174.21875 C 212.320312 174.21875 212.007812 174.21875 211.699219 174.210938 C 211.679688 175.820312 211.46875 177.332031 211.0625 178.738281 Z M 211.0625 178.738281 " fill-opacity="1" fill-rule="nonzero"/><path fill="#964716" d="M 163.691406 178.738281 C 163.285156 177.332031 163.070312 175.820312 163.054688 174.207031 C 162.746094 174.210938 162.429688 174.210938 162.121094 174.210938 C 162.144531 176.003906 162.402344 177.691406 162.886719 179.261719 C 162.929688 179.234375 162.964844 179.203125 163.003906 179.175781 C 163.230469 179.027344 163.460938 178.882812 163.691406 178.738281 Z M 163.691406 178.738281 " fill-opacity="1" fill-rule="nonzero"/><path fill="#964716" d="M 201.425781 156.332031 C 201.597656 156.167969 201.761719 155.996094 201.933594 155.828125 C 202.632812 155.179688 203.394531 154.609375 204.207031 154.121094 C 205.007812 153.621094 205.867188 153.207031 206.742188 152.851562 C 207.179688 152.675781 207.625 152.511719 208.074219 152.363281 C 208.363281 152.273438 208.65625 152.179688 208.953125 152.101562 C 208.925781 151.9375 208.898438 151.773438 208.867188 151.613281 L 209.4375 151.96875 C 209.273438 152.007812 209.113281 152.054688 208.953125 152.101562 C 209.378906 154.558594 209.640625 157.046875 209.613281 159.535156 C 209.601562 160.859375 209.488281 162.183594 209.246094 163.484375 L 209.144531 163.972656 C 209.109375 164.136719 209.082031 164.300781 209.039062 164.460938 C 208.949219 164.777344 208.875 165.105469 208.769531 165.421875 C 208.664062 165.738281 208.558594 166.054688 208.4375 166.371094 C 208.320312 166.6875 208.199219 167 208.085938 167.316406 C 208.257812 167.023438 208.421875 166.730469 208.589844 166.4375 C 208.75 166.140625 208.898438 165.835938 209.050781 165.53125 C 209.195312 165.222656 209.308594 164.898438 209.4375 164.582031 C 209.554688 164.261719 209.648438 163.933594 209.75 163.605469 C 210.128906 162.292969 210.324219 160.929688 210.414062 159.566406 C 210.5 158.207031 210.472656 156.839844 210.359375 155.476562 C 210.238281 154.121094 210.042969 152.773438 209.773438 151.4375 L 209.675781 150.957031 L 209.207031 151.089844 C 208.257812 151.351562 207.324219 151.691406 206.421875 152.105469 C 205.523438 152.511719 204.664062 153.011719 203.851562 153.582031 C 203.050781 154.164062 202.300781 154.816406 201.660156 155.5625 C 201.5 155.753906 201.347656 155.949219 201.195312 156.136719 L 200.757812 156.722656 C 200.472656 157.113281 200.1875 157.503906 199.90625 157.90625 C 200.25 157.5625 200.59375 157.21875 200.925781 156.867188 Z M 201.425781 156.332031 " fill-opacity="1" fill-rule="nonzero"/><path fill="#964716" d="M 208.867188 151.605469 C 208.898438 151.765625 208.925781 151.933594 208.953125 152.09375 C 209.113281 152.046875 209.273438 152.003906 209.4375 151.960938 Z M 208.867188 151.605469 " fill-opacity="1" fill-rule="nonzero"/><path fill="#964716" d="M 173.328125 156.328125 L 173.832031 156.851562 C 174.171875 157.199219 174.507812 157.546875 174.859375 157.890625 C 174.578125 157.496094 174.289062 157.097656 174.003906 156.707031 C 173.859375 156.511719 173.71875 156.316406 173.570312 156.121094 C 173.414062 155.929688 173.265625 155.734375 173.105469 155.546875 C 172.464844 154.792969 171.714844 154.140625 170.90625 153.558594 C 170.097656 152.988281 169.234375 152.484375 168.335938 152.082031 C 167.4375 151.667969 166.503906 151.335938 165.550781 151.066406 L 165.082031 150.933594 L 164.984375 151.421875 C 164.714844 152.753906 164.527344 154.105469 164.417969 155.464844 C 164.308594 156.820312 164.285156 158.1875 164.371094 159.550781 C 164.464844 160.914062 164.660156 162.273438 165.03125 163.589844 C 165.128906 163.917969 165.238281 164.246094 165.339844 164.566406 C 165.464844 164.882812 165.589844 165.203125 165.722656 165.515625 C 165.878906 165.820312 166.027344 166.121094 166.1875 166.421875 C 166.351562 166.714844 166.519531 167.007812 166.691406 167.300781 C 166.578125 166.984375 166.457031 166.667969 166.335938 166.351562 C 166.214844 166.035156 166.113281 165.722656 166.003906 165.40625 C 165.90625 165.089844 165.828125 164.761719 165.734375 164.445312 L 165.527344 163.46875 C 165.292969 162.164062 165.183594 160.835938 165.171875 159.515625 C 165.15625 158.1875 165.21875 156.863281 165.34375 155.539062 C 165.453125 154.386719 165.613281 153.230469 165.808594 152.082031 C 165.648438 152.035156 165.488281 151.992188 165.328125 151.949219 L 165.894531 151.59375 C 165.867188 151.753906 165.839844 151.921875 165.808594 152.082031 C 166.101562 152.167969 166.398438 152.253906 166.691406 152.347656 C 167.136719 152.496094 167.585938 152.65625 168.027344 152.835938 C 168.902344 153.191406 169.753906 153.605469 170.5625 154.105469 C 170.761719 154.226562 170.964844 154.359375 171.15625 154.488281 C 171.359375 154.617188 171.546875 154.757812 171.738281 154.902344 C 172.113281 155.191406 172.476562 155.5 172.832031 155.816406 C 172.992188 155.988281 173.15625 156.160156 173.328125 156.328125 Z M 173.328125 156.328125 " fill-opacity="1" fill-rule="nonzero"/><path fill="#964716" d="M 165.3125 151.957031 C 165.472656 151.996094 165.632812 152.042969 165.792969 152.089844 C 165.820312 151.925781 165.84375 151.761719 165.878906 151.601562 Z M 165.3125 151.957031 " fill-opacity="1" fill-rule="nonzero"/><g clip-path="url(#0b0bb818d3)"><path fill="#964716" d="M 173.976562 226.15625 C 172.257812 226.132812 170.539062 226.128906 168.820312 226.121094 L 165.324219 226.121094 L 164.445312 226.128906 L 164.230469 226.128906 L 164.058594 226.121094 C 163.941406 226.109375 163.832031 226.09375 163.726562 226.058594 C 163.289062 225.9375 162.90625 225.640625 162.675781 225.25 C 162.5625 225.054688 162.480469 224.839844 162.453125 224.617188 C 162.449219 224.558594 162.441406 224.507812 162.4375 224.449219 L 162.4375 224.277344 C 162.449219 224.152344 162.453125 224.03125 162.480469 223.910156 C 162.566406 223.421875 162.796875 222.953125 163.113281 222.539062 C 163.425781 222.125 163.828125 221.773438 164.28125 221.503906 C 164.734375 221.238281 165.242188 221.050781 165.773438 220.945312 C 166.308594 220.835938 166.855469 220.808594 167.414062 220.832031 C 167.96875 220.859375 168.519531 220.945312 169.074219 221.066406 C 170.179688 221.296875 171.289062 221.652344 172.457031 221.871094 C 171.472656 221.203125 170.414062 220.664062 169.257812 220.332031 C 168.804688 220.207031 168.339844 220.109375 167.863281 220.050781 C 167.875 220.0625 167.882812 220.066406 167.894531 220.078125 L 167.230469 220.738281 C 166.988281 220.5 166.761719 220.246094 166.535156 219.992188 C 166.226562 220.003906 165.925781 220.039062 165.613281 220.089844 C 164.996094 220.195312 164.394531 220.394531 163.828125 220.707031 C 163.265625 221.015625 162.761719 221.433594 162.363281 221.945312 C 161.960938 222.457031 161.652344 223.058594 161.515625 223.722656 C 161.472656 223.882812 161.460938 224.054688 161.441406 224.222656 L 161.433594 224.492188 C 161.433594 224.582031 161.445312 224.667969 161.457031 224.761719 C 161.503906 225.117188 161.617188 225.46875 161.792969 225.777344 C 162.148438 226.402344 162.75 226.871094 163.4375 227.078125 C 163.609375 227.128906 163.789062 227.15625 163.964844 227.179688 L 164.234375 227.195312 L 164.453125 227.195312 L 165.328125 227.203125 L 168.828125 227.203125 C 171.007812 227.195312 173.195312 227.183594 175.378906 227.144531 C 175.097656 227.085938 174.828125 226.972656 174.59375 226.8125 C 174.34375 226.628906 174.136719 226.402344 173.976562 226.15625 Z M 173.976562 226.15625 " fill-opacity="1" fill-rule="nonzero"/></g><path fill="#964716" d="M 203.59375 189.355469 L 203.605469 189.527344 C 203.617188 189.746094 203.632812 189.96875 203.652344 190.183594 C 203.945312 193.472656 205.753906 196.324219 207.511719 199.082031 L 207.71875 199.410156 C 209.855469 202.769531 210.964844 205.871094 211.109375 208.882812 C 211.195312 210.714844 210.941406 212.507812 210.335938 214.363281 C 209.617188 216.546875 208.460938 218.453125 206.898438 220.042969 C 207.332031 219.992188 207.78125 219.964844 208.226562 219.988281 C 209.5625 218.449219 210.570312 216.660156 211.222656 214.65625 C 211.859375 212.714844 212.132812 210.753906 212.042969 208.835938 C 211.890625 205.652344 210.734375 202.40625 208.503906 198.902344 L 208.296875 198.574219 C 206.601562 195.914062 204.855469 193.164062 204.578125 190.097656 C 204.5625 189.890625 204.550781 189.683594 204.535156 189.46875 L 204.523438 189.296875 C 204.503906 188.976562 204.480469 188.644531 204.449219 188.308594 C 204.15625 188.480469 203.859375 188.648438 203.554688 188.808594 C 203.570312 189 203.582031 189.175781 203.59375 189.355469 Z M 203.59375 189.355469 " fill-opacity="1" fill-rule="nonzero"/><path fill="#964716" d="M 203.492188 188.132812 C 203.519531 188.355469 203.542969 188.585938 203.558594 188.816406 C 203.863281 188.65625 204.160156 188.488281 204.453125 188.316406 C 204.441406 188.210938 204.429688 188.109375 204.414062 188 Z M 203.492188 188.132812 " fill-opacity="1" fill-rule="nonzero"/><path fill="#964716" d="M 167.859375 220.042969 C 166.296875 218.453125 165.140625 216.546875 164.421875 214.367188 C 163.816406 212.511719 163.5625 210.71875 163.648438 208.886719 C 163.792969 205.878906 164.90625 202.773438 167.039062 199.414062 L 167.246094 199.085938 C 169 196.328125 170.816406 193.480469 171.101562 190.1875 C 171.117188 189.976562 171.136719 189.75 171.148438 189.535156 L 171.15625 189.359375 C 171.167969 189.183594 171.179688 189.003906 171.191406 188.820312 C 170.890625 188.660156 170.589844 188.492188 170.300781 188.320312 C 170.265625 188.648438 170.246094 188.980469 170.226562 189.308594 L 170.214844 189.480469 C 170.203125 189.695312 170.191406 189.902344 170.167969 190.109375 C 169.898438 193.175781 168.144531 195.925781 166.449219 198.585938 L 166.246094 198.914062 C 164.015625 202.417969 162.859375 205.671875 162.707031 208.847656 C 162.613281 210.765625 162.886719 212.726562 163.523438 214.667969 C 164.175781 216.667969 165.183594 218.453125 166.519531 219.992188 C 166.976562 219.964844 167.425781 219.988281 167.859375 220.042969 Z M 167.859375 220.042969 " fill-opacity="1" fill-rule="nonzero"/><path fill="#964716" d="M 171.261719 188.132812 L 170.339844 188 C 170.320312 188.101562 170.308594 188.207031 170.300781 188.316406 C 170.589844 188.488281 170.890625 188.65625 171.191406 188.816406 C 171.210938 188.585938 171.234375 188.355469 171.261719 188.132812 Z M 171.261719 188.132812 " fill-opacity="1" fill-rule="nonzero"/><path fill="#964716" d="M 167.886719 220.074219 C 167.875 220.0625 167.871094 220.054688 167.859375 220.042969 C 167.425781 219.992188 166.976562 219.96875 166.53125 219.988281 C 166.753906 220.246094 166.984375 220.492188 167.222656 220.734375 Z M 167.886719 220.074219 " fill-opacity="1" fill-rule="nonzero"/><path fill="#964716" d="M 177.722656 172.632812 C 177.894531 172.632812 178.066406 172.597656 178.226562 172.535156 C 179.054688 172.222656 179.695312 171.167969 179.839844 169.839844 C 179.863281 169.648438 179.875 169.453125 179.875 169.257812 C 179.875 167.398438 178.914062 165.882812 177.722656 165.882812 C 176.53125 165.882812 175.566406 167.394531 175.566406 169.257812 C 175.566406 171.125 176.53125 172.632812 177.722656 172.632812 Z M 177.722656 172.632812 " fill-opacity="1" fill-rule="nonzero"/><path fill="#964716" d="M 197.03125 172.632812 C 197.203125 172.632812 197.375 172.597656 197.535156 172.535156 C 198.359375 172.222656 199.007812 171.167969 199.152344 169.839844 C 199.171875 169.648438 199.183594 169.453125 199.183594 169.257812 C 199.183594 167.398438 198.222656 165.886719 197.03125 165.886719 C 195.839844 165.886719 194.878906 167.398438 194.878906 169.257812 C 194.878906 171.121094 195.847656 172.632812 197.03125 172.632812 Z M 197.03125 172.632812 " fill-opacity="1" fill-rule="nonzero"/><path fill="#964716" d="M 187.566406 172.941406 C 188.328125 172.839844 188.921875 172.101562 188.921875 171.644531 C 188.921875 171.144531 188.230469 170.914062 187.382812 170.914062 C 186.527344 170.914062 185.839844 171.144531 185.839844 171.644531 C 185.839844 172.101562 186.4375 172.839844 187.199219 172.941406 C 187.265625 172.839844 187.332031 172.722656 187.382812 172.597656 C 187.433594 172.71875 187.496094 172.832031 187.566406 172.941406 Z M 187.566406 172.941406 " fill-opacity="1" fill-rule="nonzero"/><path fill="#964716" d="M 185.679688 174.761719 C 185.824219 174.761719 185.972656 174.746094 186.109375 174.710938 C 186.105469 174.660156 186.105469 174.609375 186.105469 174.554688 C 186.105469 174.449219 186.109375 174.339844 186.121094 174.234375 C 186.660156 174.089844 187.089844 173.683594 187.273438 173.167969 C 187.265625 173.089844 187.273438 173.023438 187.277344 172.953125 C 187.25 172.953125 187.214844 172.949219 187.1875 172.949219 C 187.019531 173.207031 186.828125 173.402344 186.621094 173.546875 C 186.324219 173.742188 186 173.832031 185.679688 173.832031 C 185.359375 173.832031 185.039062 173.742188 184.742188 173.546875 C 184.445312 173.34375 184.179688 173.046875 183.984375 172.601562 C 183.785156 173.050781 183.886719 173.636719 184.222656 174.0625 C 184.554688 174.488281 185.113281 174.761719 185.679688 174.761719 Z M 185.679688 174.761719 " fill-opacity="1" fill-rule="nonzero"/><path fill="#964716" d="M 187.375 172.589844 C 187.320312 172.71875 187.257812 172.832031 187.191406 172.9375 C 187.222656 172.941406 187.257812 172.941406 187.285156 172.941406 C 187.296875 172.828125 187.324219 172.707031 187.375 172.589844 Z M 187.375 172.589844 " fill-opacity="1" fill-rule="nonzero"/><path fill="#964716" d="M 187.472656 173.160156 C 187.65625 173.683594 188.085938 174.085938 188.625 174.234375 C 188.636719 174.339844 188.640625 174.449219 188.640625 174.554688 C 188.640625 174.609375 188.640625 174.660156 188.636719 174.710938 C 188.78125 174.746094 188.921875 174.761719 189.066406 174.761719 C 189.632812 174.769531 190.195312 174.492188 190.519531 174.058594 C 190.851562 173.625 190.957031 173.046875 190.753906 172.597656 C 190.558594 173.039062 190.296875 173.339844 190 173.539062 C 189.703125 173.734375 189.378906 173.828125 189.058594 173.828125 C 188.738281 173.828125 188.417969 173.734375 188.121094 173.539062 C 187.910156 173.394531 187.714844 173.207031 187.554688 172.941406 C 187.523438 172.949219 187.492188 172.949219 187.460938 172.953125 C 187.480469 173.015625 187.480469 173.089844 187.472656 173.160156 Z M 187.472656 173.160156 " fill-opacity="1" fill-rule="nonzero"/><path fill="#964716" d="M 187.46875 172.949219 C 187.496094 172.949219 187.53125 172.941406 187.558594 172.9375 C 187.492188 172.832031 187.429688 172.71875 187.371094 172.589844 C 187.429688 172.707031 187.457031 172.828125 187.46875 172.949219 Z M 187.46875 172.949219 " fill-opacity="1" fill-rule="nonzero"/><path fill="#964716" d="M 187.285156 172.949219 C 187.277344 173.015625 187.277344 173.089844 187.277344 173.160156 C 187.300781 173.089844 187.324219 173.023438 187.34375 172.949219 C 187.320312 172.953125 187.300781 172.949219 187.285156 172.949219 Z M 187.285156 172.949219 " fill-opacity="1" fill-rule="nonzero"/><path fill="#964716" d="M 187.472656 173.160156 C 187.480469 173.089844 187.472656 173.015625 187.46875 172.949219 C 187.449219 172.949219 187.433594 172.949219 187.410156 172.953125 C 187.429688 173.023438 187.449219 173.089844 187.472656 173.160156 Z M 187.472656 173.160156 " fill-opacity="1" fill-rule="nonzero"/><path fill="#964716" d="M 187.371094 172.699219 L 187.375 172.699219 C 187.382812 172.785156 187.394531 172.867188 187.410156 172.949219 C 187.429688 172.949219 187.445312 172.949219 187.46875 172.941406 C 187.457031 172.816406 187.421875 172.699219 187.375 172.585938 C 187.324219 172.695312 187.296875 172.816406 187.285156 172.941406 C 187.300781 172.941406 187.320312 172.941406 187.34375 172.949219 C 187.351562 172.875 187.363281 172.785156 187.371094 172.699219 Z M 187.371094 172.699219 " fill-opacity="1" fill-rule="nonzero"/><path fill="#964716" d="M 187.609375 174.058594 C 187.507812 173.925781 187.433594 173.78125 187.375 173.625 C 187.320312 173.773438 187.246094 173.925781 187.140625 174.058594 C 186.894531 174.378906 186.523438 174.613281 186.117188 174.710938 C 186.171875 175.660156 186.71875 176.40625 187.382812 176.40625 C 188.046875 176.40625 188.589844 175.660156 188.648438 174.710938 C 188.230469 174.613281 187.855469 174.378906 187.609375 174.058594 Z M 187.609375 174.058594 " fill-opacity="1" fill-rule="nonzero"/><path fill="#964716" d="M 187.140625 174.058594 C 187.246094 173.925781 187.320312 173.78125 187.375 173.625 C 187.320312 173.476562 187.285156 173.320312 187.277344 173.167969 C 187.09375 173.6875 186.667969 174.089844 186.128906 174.234375 C 186.117188 174.339844 186.109375 174.449219 186.109375 174.554688 C 186.109375 174.609375 186.109375 174.660156 186.117188 174.710938 C 186.523438 174.613281 186.894531 174.378906 187.140625 174.058594 Z M 187.140625 174.058594 " fill-opacity="1" fill-rule="nonzero"/><path fill="#964716" d="M 188.625 174.234375 C 188.085938 174.089844 187.65625 173.683594 187.472656 173.160156 C 187.46875 173.316406 187.433594 173.46875 187.375 173.625 C 187.433594 173.78125 187.515625 173.925781 187.609375 174.058594 C 187.855469 174.378906 188.230469 174.613281 188.636719 174.710938 C 188.640625 174.660156 188.640625 174.609375 188.640625 174.554688 C 188.648438 174.441406 188.636719 174.339844 188.625 174.234375 Z M 188.625 174.234375 " fill-opacity="1" fill-rule="nonzero"/><path fill="#964716" d="M 187.472656 173.160156 C 187.449219 173.089844 187.429688 173.023438 187.417969 172.953125 C 187.40625 172.953125 187.394531 172.953125 187.375 172.953125 C 187.363281 172.953125 187.347656 172.953125 187.335938 172.953125 C 187.320312 173.027344 187.300781 173.097656 187.273438 173.167969 C 187.277344 173.320312 187.3125 173.476562 187.371094 173.625 C 187.433594 173.46875 187.46875 173.316406 187.472656 173.160156 Z M 187.472656 173.160156 " fill-opacity="1" fill-rule="nonzero"/><path fill="#964716" d="M 187.371094 172.699219 C 187.363281 172.785156 187.351562 172.867188 187.335938 172.949219 C 187.347656 172.949219 187.359375 172.949219 187.375 172.949219 C 187.386719 172.949219 187.40625 172.949219 187.417969 172.949219 C 187.398438 172.867188 187.386719 172.78125 187.382812 172.699219 Z M 187.371094 172.699219 " fill-opacity="1" fill-rule="nonzero"/><g clip-path="url(#cf34dfeacc)"><path fill="#964716" d="M 206.863281 220.074219 C 206.875 220.0625 206.882812 220.054688 206.886719 220.042969 C 206.492188 220.097656 206.101562 220.164062 205.726562 220.261719 C 204.480469 220.597656 203.34375 221.152344 202.292969 221.867188 C 202.917969 221.757812 203.527344 221.589844 204.121094 221.433594 L 205.007812 221.210938 C 205.308594 221.140625 205.597656 221.074219 205.890625 221.015625 C 207.058594 220.769531 208.273438 220.722656 209.378906 221.039062 C 209.933594 221.195312 210.445312 221.445312 210.882812 221.785156 C 211.324219 222.125 211.699219 222.554688 211.957031 223.039062 C 212.082031 223.277344 212.179688 223.53125 212.242188 223.789062 C 212.269531 223.921875 212.292969 224.046875 212.304688 224.179688 C 212.320312 224.320312 212.316406 224.429688 212.304688 224.546875 C 212.257812 225.023438 211.988281 225.472656 211.605469 225.765625 C 211.410156 225.910156 211.195312 226.019531 210.960938 226.078125 C 210.84375 226.105469 210.722656 226.121094 210.605469 226.128906 L 210.164062 226.128906 L 208.300781 226.121094 L 204.574219 226.121094 L 200.84375 226.144531 L 200.78125 226.144531 C 200.621094 226.402344 200.417969 226.621094 200.167969 226.792969 C 199.921875 226.960938 199.648438 227.078125 199.355469 227.132812 C 199.328125 227.140625 199.300781 227.144531 199.269531 227.144531 L 200.84375 227.15625 L 204.574219 227.179688 L 208.300781 227.179688 L 210.164062 227.175781 L 210.511719 227.175781 L 210.648438 227.167969 C 210.839844 227.15625 211.027344 227.128906 211.210938 227.082031 C 211.578125 226.988281 211.925781 226.816406 212.230469 226.589844 C 212.835938 226.128906 213.242188 225.40625 213.308594 224.640625 C 213.324219 224.449219 213.320312 224.25 213.296875 224.078125 C 213.277344 223.898438 213.242188 223.722656 213.203125 223.550781 C 213.117188 223.203125 212.980469 222.871094 212.816406 222.566406 C 212.476562 221.953125 212.007812 221.429688 211.453125 221.027344 C 210.894531 220.617188 210.261719 220.335938 209.613281 220.175781 C 209.148438 220.0625 208.683594 220 208.214844 219.980469 C 207.992188 220.234375 207.761719 220.488281 207.523438 220.726562 Z M 206.863281 220.074219 " fill-opacity="1" fill-rule="nonzero"/></g><path fill="#964716" d="M 206.886719 220.042969 C 206.875 220.054688 206.871094 220.0625 206.863281 220.074219 L 207.527344 220.734375 C 207.769531 220.492188 208 220.238281 208.222656 219.988281 C 207.769531 219.96875 207.328125 219.992188 206.886719 220.042969 Z M 206.886719 220.042969 " fill-opacity="1" fill-rule="nonzero"/><path fill="#964716" d="M 177.421875 211.578125 L 177.097656 210.214844 L 176.808594 208.84375 L 176.5625 207.464844 L 176.359375 206.078125 L 176.199219 204.6875 C 176.164062 204.222656 176.113281 203.757812 176.054688 203.292969 C 176.015625 202.828125 175.957031 202.363281 175.886719 201.890625 C 175.832031 201.425781 175.769531 200.953125 175.664062 200.476562 C 175.566406 200.949219 175.5 201.417969 175.449219 201.894531 C 175.40625 202.375 175.390625 202.84375 175.378906 203.320312 C 175.382812 203.796875 175.402344 204.273438 175.425781 204.746094 L 175.539062 206.171875 L 175.699219 207.589844 L 175.90625 209.003906 L 176.164062 210.410156 L 176.464844 211.804688 C 176.902344 213.660156 177.464844 215.488281 178.144531 217.269531 C 178.699219 218.710938 179.332031 220.125 180.046875 221.488281 C 180.183594 221.519531 180.320312 221.554688 180.453125 221.589844 C 180.75 221.671875 181.042969 221.761719 181.324219 221.878906 C 180.503906 220.25 179.753906 218.589844 179.105469 216.894531 C 178.449219 215.160156 177.882812 213.378906 177.421875 211.578125 Z M 177.421875 211.578125 " fill-opacity="1" fill-rule="nonzero"/><g clip-path="url(#0207d001df)"><path fill="#964716" d="M 187.019531 224.796875 L 187.152344 223.441406 L 187.285156 222.082031 C 187.3125 221.789062 187.34375 221.496094 187.375 221.203125 C 187.359375 221.050781 187.34375 220.890625 187.320312 220.734375 C 187.203125 219.832031 187.085938 218.9375 186.945312 218.035156 C 186.675781 216.234375 186.367188 214.449219 186.019531 212.667969 C 185.835938 211.777344 185.667969 210.886719 185.441406 210.007812 C 185.207031 209.128906 184.917969 208.265625 184.507812 207.433594 C 184.507812 208.363281 184.617188 209.261719 184.753906 210.152344 C 184.902344 211.042969 185.085938 211.921875 185.234375 212.8125 C 185.550781 214.585938 185.824219 216.367188 186.054688 218.15625 C 186.167969 219.042969 186.277344 219.941406 186.367188 220.835938 C 186.417969 221.285156 186.460938 221.734375 186.496094 222.179688 L 186.609375 223.527344 L 186.722656 224.871094 C 186.753906 225.203125 186.648438 225.507812 186.4375 225.742188 C 186.230469 225.980469 185.925781 226.117188 185.617188 226.121094 L 175.835938 226.121094 C 175.75 226.121094 175.675781 226.117188 175.601562 226.097656 C 175.453125 226.070312 175.304688 226.007812 175.179688 225.921875 C 174.914062 225.75 174.738281 225.46875 174.691406 225.167969 C 174.691406 225.128906 174.679688 225.09375 174.679688 225.054688 L 174.679688 224.9375 C 174.691406 224.847656 174.695312 224.753906 174.714844 224.667969 C 174.75 224.484375 174.800781 224.308594 174.878906 224.136719 C 175.035156 223.789062 175.269531 223.46875 175.550781 223.199219 C 176.117188 222.652344 176.890625 222.347656 177.703125 222.25 C 178.523438 222.152344 179.375 222.257812 180.207031 222.472656 C 181.035156 222.703125 181.855469 223.039062 182.863281 222.957031 C 182.421875 222.441406 181.890625 222.117188 181.3125 221.882812 C 181.335938 221.921875 181.351562 221.964844 181.375 222.003906 L 180.550781 222.445312 C 180.371094 222.128906 180.199219 221.808594 180.027344 221.488281 C 179.246094 221.300781 178.417969 221.210938 177.589844 221.300781 C 177.101562 221.355469 176.617188 221.46875 176.152344 221.660156 C 175.6875 221.847656 175.246094 222.125 174.867188 222.472656 C 174.496094 222.820312 174.175781 223.238281 173.953125 223.714844 C 173.839844 223.949219 173.757812 224.210938 173.699219 224.46875 C 173.671875 224.601562 173.660156 224.730469 173.644531 224.863281 C 173.636719 224.933594 173.636719 225.015625 173.636719 225.089844 C 173.636719 225.164062 173.648438 225.238281 173.65625 225.3125 C 173.695312 225.609375 173.796875 225.898438 173.957031 226.152344 C 174.570312 226.15625 175.183594 226.167969 175.800781 226.179688 L 175.800781 227.117188 C 175.652344 227.117188 175.503906 227.121094 175.355469 227.121094 C 175.367188 227.121094 175.371094 227.128906 175.382812 227.128906 C 175.457031 227.140625 175.527344 227.152344 175.601562 227.164062 C 175.675781 227.167969 175.757812 227.175781 175.820312 227.175781 L 184.265625 227.175781 L 185.636719 227.164062 C 186.226562 227.152344 186.808594 226.871094 187.191406 226.421875 C 187.257812 226.351562 187.308594 226.277344 187.359375 226.195312 C 187.246094 226.03125 187.160156 225.847656 187.09375 225.652344 C 187.019531 225.382812 187 225.070312 187.019531 224.796875 Z M 187.019531 224.796875 " fill-opacity="1" fill-rule="nonzero"/></g><g clip-path="url(#2882cc295b)"><path fill="#964716" d="M 175.820312 226.179688 C 175.207031 226.167969 174.59375 226.15625 173.976562 226.152344 C 174.128906 226.402344 174.34375 226.621094 174.582031 226.789062 C 174.816406 226.949219 175.085938 227.066406 175.367188 227.121094 C 175.515625 227.121094 175.664062 227.117188 175.8125 227.117188 L 175.8125 226.179688 Z M 175.820312 226.179688 " fill-opacity="1" fill-rule="nonzero"/></g><path fill="#964716" d="M 180.046875 221.492188 C 180.210938 221.8125 180.382812 222.136719 180.566406 222.453125 L 181.390625 222.007812 C 181.367188 221.96875 181.351562 221.929688 181.328125 221.886719 C 181.046875 221.773438 180.757812 221.683594 180.457031 221.601562 C 180.316406 221.5625 180.183594 221.527344 180.046875 221.492188 Z M 180.046875 221.492188 " fill-opacity="1" fill-rule="nonzero"/><path fill="#964716" d="M 198.292969 211.8125 L 198.59375 210.417969 L 198.851562 209.007812 L 199.058594 207.59375 L 199.21875 206.175781 L 199.332031 204.75 C 199.355469 204.273438 199.375 203.804688 199.378906 203.328125 C 199.367188 202.851562 199.351562 202.375 199.3125 201.902344 C 199.257812 201.425781 199.191406 200.953125 199.09375 200.484375 C 198.988281 200.953125 198.921875 201.425781 198.871094 201.894531 C 198.796875 202.363281 198.742188 202.832031 198.703125 203.296875 C 198.648438 203.761719 198.601562 204.230469 198.5625 204.695312 L 198.398438 206.085938 L 198.195312 207.46875 L 197.949219 208.847656 L 197.660156 210.222656 L 197.335938 211.582031 C 196.875 213.390625 196.308594 215.167969 195.644531 216.90625 C 195 218.609375 194.253906 220.269531 193.429688 221.886719 C 193.710938 221.773438 194.003906 221.683594 194.300781 221.601562 C 194.429688 221.5625 194.570312 221.53125 194.707031 221.496094 C 195.421875 220.128906 196.058594 218.722656 196.609375 217.28125 C 197.296875 215.496094 197.851562 213.667969 198.292969 211.8125 Z M 198.292969 211.8125 " fill-opacity="1" fill-rule="nonzero"/><g clip-path="url(#acfad692df)"><path fill="#964716" d="M 197.117188 227.121094 L 197.117188 226.179688 L 198.980469 226.15625 L 200.777344 226.144531 C 200.929688 225.894531 201.035156 225.609375 201.074219 225.316406 C 201.082031 225.242188 201.09375 225.167969 201.09375 225.09375 C 201.09375 225.019531 201.09375 224.945312 201.085938 224.871094 C 201.070312 224.738281 201.058594 224.601562 201.027344 224.472656 C 200.976562 224.210938 200.890625 223.957031 200.777344 223.722656 C 200.558594 223.246094 200.238281 222.824219 199.859375 222.480469 C 199.488281 222.136719 199.046875 221.859375 198.578125 221.664062 C 198.113281 221.476562 197.628906 221.359375 197.140625 221.308594 C 196.308594 221.222656 195.484375 221.308594 194.699219 221.492188 C 194.535156 221.8125 194.363281 222.136719 194.179688 222.453125 L 193.355469 222.007812 C 193.378906 221.96875 193.394531 221.929688 193.417969 221.886719 C 192.839844 222.125 192.308594 222.445312 191.867188 222.964844 C 192.878906 223.042969 193.691406 222.710938 194.523438 222.480469 C 195.359375 222.261719 196.207031 222.160156 197.027344 222.257812 C 197.84375 222.355469 198.617188 222.660156 199.179688 223.203125 C 199.460938 223.472656 199.699219 223.789062 199.847656 224.140625 C 199.929688 224.3125 199.980469 224.492188 200.015625 224.675781 C 200.039062 224.765625 200.039062 224.859375 200.050781 224.945312 L 200.050781 225.058594 C 200.050781 225.101562 200.042969 225.132812 200.039062 225.175781 C 199.996094 225.472656 199.816406 225.753906 199.550781 225.925781 C 199.425781 226.011719 199.277344 226.078125 199.128906 226.105469 C 199.046875 226.121094 198.980469 226.121094 198.894531 226.128906 L 190.445312 226.128906 L 189.105469 226.132812 C 188.796875 226.128906 188.492188 225.992188 188.285156 225.753906 C 188.074219 225.519531 187.972656 225.214844 188 224.882812 L 188.113281 223.539062 L 188.230469 222.191406 C 188.269531 221.746094 188.304688 221.296875 188.355469 220.847656 C 188.445312 219.953125 188.554688 219.054688 188.671875 218.164062 C 188.898438 216.378906 189.175781 214.597656 189.488281 212.824219 C 189.644531 211.933594 189.828125 211.054688 189.96875 210.164062 C 190.109375 209.273438 190.214844 208.371094 190.214844 207.445312 C 189.804688 208.277344 189.519531 209.140625 189.285156 210.019531 C 189.054688 210.898438 188.886719 211.789062 188.703125 212.679688 C 188.351562 214.460938 188.039062 216.246094 187.777344 218.046875 C 187.640625 218.941406 187.519531 219.84375 187.40625 220.746094 C 187.382812 220.902344 187.363281 221.0625 187.347656 221.214844 C 187.382812 221.507812 187.410156 221.800781 187.4375 222.09375 L 187.570312 223.453125 L 187.703125 224.808594 C 187.730469 225.082031 187.703125 225.394531 187.609375 225.675781 C 187.546875 225.871094 187.460938 226.046875 187.347656 226.21875 C 187.398438 226.296875 187.457031 226.375 187.515625 226.445312 C 187.898438 226.890625 188.480469 227.167969 189.070312 227.183594 L 190.441406 227.195312 L 198.886719 227.195312 C 198.949219 227.195312 199.03125 227.191406 199.105469 227.183594 C 199.152344 227.179688 199.195312 227.175781 199.242188 227.167969 L 198.957031 227.167969 Z M 197.117188 227.121094 " fill-opacity="1" fill-rule="nonzero"/></g><g clip-path="url(#8a0c0208c4)"><path fill="#964716" d="M 200.164062 226.792969 C 200.410156 226.628906 200.621094 226.402344 200.777344 226.144531 L 198.980469 226.15625 L 197.117188 226.179688 L 197.117188 227.117188 L 198.980469 227.140625 L 199.265625 227.140625 C 199.292969 227.132812 199.320312 227.128906 199.351562 227.128906 C 199.644531 227.078125 199.921875 226.960938 200.164062 226.792969 Z M 200.164062 226.792969 " fill-opacity="1" fill-rule="nonzero"/></g><path fill="#964716" d="M 187.730469 224.796875 L 187.597656 223.441406 L 187.46875 222.082031 C 187.4375 221.789062 187.410156 221.496094 187.375 221.203125 C 187.34375 221.496094 187.3125 221.789062 187.285156 222.082031 L 187.152344 223.441406 L 187.019531 224.796875 C 186.992188 225.070312 187.019531 225.382812 187.113281 225.664062 C 187.175781 225.859375 187.261719 226.035156 187.375 226.207031 C 187.492188 226.042969 187.578125 225.859375 187.640625 225.664062 C 187.730469 225.382812 187.753906 225.070312 187.730469 224.796875 Z M 187.730469 224.796875 " fill-opacity="1" fill-rule="nonzero"/><path fill="#964716" d="M 193.429688 221.886719 C 193.40625 221.929688 193.390625 221.96875 193.367188 222.007812 L 194.191406 222.453125 C 194.367188 222.136719 194.539062 221.8125 194.710938 221.492188 C 194.574219 221.527344 194.4375 221.5625 194.304688 221.59375 C 194.003906 221.675781 193.710938 221.773438 193.429688 221.886719 Z M 193.429688 221.886719 " fill-opacity="1" fill-rule="nonzero"/><path fill="#964716" d="M 206.886719 173.257812 C 205.554688 173.304688 204.21875 173.367188 202.878906 173.535156 C 204.207031 173.757812 205.535156 173.890625 206.871094 173.992188 C 208.199219 174.089844 209.53125 174.15625 210.867188 174.1875 C 211.140625 174.195312 211.421875 174.199219 211.699219 174.207031 C 211.699219 174.132812 211.703125 174.0625 211.703125 173.988281 C 211.703125 173.753906 211.699219 173.515625 211.6875 173.28125 C 211.421875 173.269531 211.152344 173.265625 210.890625 173.257812 C 209.554688 173.222656 208.222656 173.222656 206.886719 173.257812 Z M 206.886719 173.257812 " fill-opacity="1" fill-rule="nonzero"/><g clip-path="url(#870bb02a54)"><path fill="#964716" d="M 212.632812 174.210938 C 213.375 174.210938 214.121094 174.207031 214.863281 174.183594 C 216.199219 174.144531 217.535156 174.074219 218.875 173.90625 C 217.542969 173.675781 216.214844 173.550781 214.882812 173.449219 C 214.125 173.390625 213.375 173.351562 212.621094 173.316406 C 212.625 173.539062 212.632812 173.765625 212.632812 173.988281 C 212.636719 174.0625 212.632812 174.136719 212.632812 174.210938 Z M 212.632812 174.210938 " fill-opacity="1" fill-rule="nonzero"/></g><path fill="#964716" d="M 211.703125 173.980469 C 211.703125 174.058594 211.703125 174.132812 211.699219 174.199219 C 212.007812 174.207031 212.320312 174.207031 212.632812 174.207031 C 212.632812 174.132812 212.636719 174.058594 212.636719 173.976562 C 212.636719 173.753906 212.632812 173.527344 212.625 173.304688 C 212.316406 173.292969 212 173.273438 211.691406 173.269531 C 211.699219 173.511719 211.703125 173.746094 211.703125 173.980469 Z M 211.703125 173.980469 " fill-opacity="1" fill-rule="nonzero"/><path fill="#964716" d="M 206.394531 176.734375 C 205.445312 176.480469 204.476562 176.304688 203.484375 176.257812 C 204.378906 176.675781 205.273438 177.042969 206.152344 177.429688 C 207.035156 177.808594 207.914062 178.1875 208.78125 178.582031 C 209.457031 178.894531 210.132812 179.210938 210.804688 179.539062 C 210.894531 179.273438 210.980469 179.007812 211.0625 178.738281 C 210.453125 178.367188 209.820312 178.03125 209.171875 177.734375 C 208.273438 177.324219 207.34375 176.992188 206.394531 176.734375 Z M 206.394531 176.734375 " fill-opacity="1" fill-rule="nonzero"/><path fill="#964716" d="M 213.996094 181.101562 C 213.359375 180.398438 212.632812 179.800781 211.863281 179.265625 C 211.796875 179.496094 211.714844 179.722656 211.636719 179.945312 C 212.40625 180.324219 213.1875 180.722656 213.996094 181.101562 Z M 213.996094 181.101562 " fill-opacity="1" fill-rule="nonzero"/><path fill="#964716" d="M 211.0625 178.738281 C 210.980469 179.007812 210.894531 179.277344 210.804688 179.539062 C 210.992188 179.628906 211.1875 179.722656 211.378906 179.8125 C 211.464844 179.851562 211.550781 179.898438 211.636719 179.9375 C 211.714844 179.714844 211.796875 179.492188 211.863281 179.261719 C 211.824219 179.234375 211.789062 179.203125 211.75 179.175781 C 211.519531 179.027344 211.292969 178.882812 211.0625 178.738281 Z M 211.0625 178.738281 " fill-opacity="1" fill-rule="nonzero"/><path fill="#964716" d="M 167.882812 173.992188 C 169.210938 173.890625 170.546875 173.757812 171.875 173.535156 C 170.539062 173.367188 169.199219 173.304688 167.863281 173.257812 C 166.53125 173.21875 165.195312 173.21875 163.867188 173.253906 C 163.605469 173.257812 163.335938 173.269531 163.070312 173.273438 C 163.066406 173.511719 163.054688 173.746094 163.054688 173.980469 C 163.054688 174.058594 163.054688 174.132812 163.058594 174.199219 C 163.335938 174.195312 163.617188 174.195312 163.890625 174.183594 C 165.21875 174.15625 166.546875 174.097656 167.882812 173.992188 Z M 167.882812 173.992188 " fill-opacity="1" fill-rule="nonzero"/><g clip-path="url(#213d4008ba)"><path fill="#964716" d="M 162.121094 174.210938 C 162.121094 174.136719 162.117188 174.0625 162.117188 173.980469 C 162.117188 173.757812 162.121094 173.535156 162.128906 173.308594 C 161.371094 173.34375 160.621094 173.382812 159.863281 173.441406 C 158.535156 173.546875 157.203125 173.675781 155.875 173.902344 C 157.207031 174.066406 158.546875 174.132812 159.882812 174.175781 C 160.632812 174.207031 161.375 174.210938 162.121094 174.210938 Z M 162.121094 174.210938 " fill-opacity="1" fill-rule="nonzero"/></g><path fill="#964716" d="M 162.121094 174.210938 C 162.429688 174.210938 162.746094 174.210938 163.054688 174.207031 C 163.054688 174.132812 163.050781 174.0625 163.050781 173.988281 C 163.050781 173.753906 163.054688 173.515625 163.066406 173.28125 C 162.757812 173.292969 162.441406 173.304688 162.132812 173.316406 C 162.128906 173.539062 162.121094 173.765625 162.121094 173.988281 C 162.117188 174.0625 162.121094 174.136719 162.121094 174.210938 Z M 162.121094 174.210938 " fill-opacity="1" fill-rule="nonzero"/><path fill="#964716" d="M 160.757812 181.101562 C 161.566406 180.722656 162.34375 180.324219 163.117188 179.945312 C 163.039062 179.722656 162.957031 179.496094 162.886719 179.265625 C 162.121094 179.800781 161.394531 180.398438 160.757812 181.101562 Z M 160.757812 181.101562 " fill-opacity="1" fill-rule="nonzero"/><path fill="#964716" d="M 168.597656 177.429688 C 169.480469 177.050781 170.375 176.675781 171.265625 176.257812 C 170.277344 176.304688 169.308594 176.480469 168.359375 176.734375 C 167.40625 176.988281 166.480469 177.324219 165.582031 177.734375 C 164.925781 178.027344 164.296875 178.367188 163.691406 178.738281 C 163.769531 179.007812 163.855469 179.277344 163.949219 179.539062 C 164.617188 179.210938 165.292969 178.894531 165.96875 178.582031 C 166.839844 178.191406 167.714844 177.808594 168.597656 177.429688 Z M 168.597656 177.429688 " fill-opacity="1" fill-rule="nonzero"/><path fill="#964716" d="M 163.949219 179.539062 C 163.855469 179.273438 163.769531 179.007812 163.691406 178.738281 C 163.460938 178.882812 163.230469 179.027344 163.003906 179.179688 C 162.964844 179.210938 162.929688 179.238281 162.886719 179.265625 C 162.957031 179.496094 163.039062 179.722656 163.117188 179.945312 C 163.203125 179.90625 163.289062 179.859375 163.375 179.820312 C 163.5625 179.722656 163.757812 179.628906 163.949219 179.539062 Z M 163.949219 179.539062 " fill-opacity="1" fill-rule="nonzero"/><path fill="#964716" d="M 189.253906 152.277344 C 188.625 152.238281 187.988281 152.214844 187.375 152.214844 C 186.761719 152.214844 186.132812 152.238281 185.496094 152.277344 L 187.375 160.492188 Z M 189.253906 152.277344 " fill-opacity="1" fill-rule="nonzero"/><path fill="#964716" d="M 189.253906 152.277344 L 189.359375 151.8125 C 188.703125 151.765625 188.039062 151.742188 187.375 151.742188 C 186.707031 151.742188 186.046875 151.765625 185.394531 151.8125 L 185.496094 152.277344 C 186.128906 152.238281 186.761719 152.214844 187.375 152.214844 C 187.988281 152.214844 188.617188 152.238281 189.253906 152.277344 Z M 189.253906 152.277344 " fill-opacity="1" fill-rule="nonzero"/><path fill="#964716" d="M 191.847656 158.894531 C 192.289062 157.875 192.824219 156.90625 193.402344 155.988281 C 193.984375 155.074219 194.625 154.214844 195.3125 153.425781 C 195.320312 153.421875 195.324219 153.410156 195.335938 153.402344 C 194.484375 153.140625 193.601562 152.910156 192.707031 152.730469 C 192.695312 152.730469 192.683594 152.726562 192.671875 152.726562 C 192.421875 153.65625 192.226562 154.582031 192.089844 155.507812 C 191.921875 156.648438 191.832031 157.78125 191.847656 158.894531 Z M 191.847656 158.894531 " fill-opacity="1" fill-rule="nonzero"/><path fill="#964716" d="M 195.332031 153.410156 C 195.441406 153.277344 195.554688 153.152344 195.675781 153.023438 C 194.742188 152.726562 193.773438 152.472656 192.792969 152.277344 C 192.746094 152.425781 192.707031 152.582031 192.667969 152.730469 C 192.679688 152.730469 192.691406 152.738281 192.703125 152.738281 C 193.59375 152.914062 194.476562 153.140625 195.332031 153.410156 Z M 195.332031 153.410156 " fill-opacity="1" fill-rule="nonzero"/><path fill="#964716" d="M 181.351562 155.996094 C 181.929688 156.914062 182.460938 157.878906 182.902344 158.902344 C 182.921875 157.78125 182.828125 156.648438 182.664062 155.511719 C 182.53125 154.585938 182.335938 153.65625 182.078125 152.730469 C 182.066406 152.730469 182.054688 152.738281 182.042969 152.738281 C 181.152344 152.914062 180.269531 153.144531 179.417969 153.410156 C 179.421875 153.414062 179.425781 153.425781 179.4375 153.433594 C 180.125 154.21875 180.769531 155.074219 181.351562 155.996094 Z M 181.351562 155.996094 " fill-opacity="1" fill-rule="nonzero"/><path fill="#964716" d="M 182.085938 152.730469 C 182.042969 152.582031 182.003906 152.425781 181.957031 152.277344 C 180.972656 152.472656 180.011719 152.726562 179.078125 153.023438 C 179.199219 153.152344 179.308594 153.277344 179.421875 153.410156 C 180.273438 153.144531 181.15625 152.914062 182.050781 152.738281 C 182.0625 152.730469 182.074219 152.730469 182.085938 152.730469 Z M 182.085938 152.730469 " fill-opacity="1" fill-rule="nonzero"/><path fill="#ff914d" d="M 111.152344 179.675781 C 115.289062 179.113281 115.625 186.277344 111.796875 186.105469 C 108.71875 185.964844 107.558594 180.160156 111.152344 179.675781 " fill-opacity="1" fill-rule="evenodd"/><path fill="#ff914d" d="M 117.800781 179.675781 C 122.359375 178.710938 121.828125 186.539062 117.589844 186.105469 C 114.234375 185.761719 114.886719 180.289062 117.800781 179.675781 " fill-opacity="1" fill-rule="evenodd"/><g clip-path="url(#fd9a9e988b)"><path fill="#ff914d" d="M 109.652344 188.285156 C 108.03125 191.703125 103.09375 189.289062 103.644531 185.898438 C 104.226562 182.328125 110.828125 184.148438 109.652344 188.285156 " fill-opacity="1" fill-rule="evenodd"/></g><g clip-path="url(#84cf4dbf16)"><path fill="#ff914d" d="M 123.058594 184.03125 C 124.125 183.832031 125.457031 184.199219 125.953125 185.066406 C 127.324219 187.46875 124.796875 190.40625 122.308594 190.152344 C 120.941406 190.011719 120.148438 188.886719 120.054688 187.867188 C 119.851562 185.691406 121.460938 184.328125 123.058594 184.03125 " fill-opacity="1" fill-rule="evenodd"/></g><g clip-path="url(#7dbfaa9a09)"><path fill="#ff914d" d="M 113.832031 187.246094 C 117.59375 186.621094 121.042969 189.238281 120.269531 193.675781 C 120.109375 194.597656 119.292969 195.894531 118.125 195.960938 C 117.179688 196.011719 116.078125 195.125 114.90625 195.128906 C 113.449219 195.136719 112.300781 196.386719 110.9375 195.753906 C 109.792969 195.21875 109.328125 193.066406 109.542969 191.5 C 109.851562 189.242188 111.570312 187.625 113.832031 187.246094 " fill-opacity="1" fill-rule="evenodd"/></g><path fill="#ff914d" d="M 256.320312 179.675781 C 260.457031 179.113281 260.792969 186.277344 256.964844 186.105469 C 253.886719 185.964844 252.722656 180.160156 256.320312 179.675781 " fill-opacity="1" fill-rule="evenodd"/><path fill="#ff914d" d="M 262.96875 179.675781 C 267.527344 178.710938 266.996094 186.539062 262.753906 186.105469 C 259.398438 185.761719 260.054688 180.289062 262.96875 179.675781 " fill-opacity="1" fill-rule="evenodd"/><g clip-path="url(#04b220b913)"><path fill="#ff914d" d="M 254.820312 188.285156 C 253.199219 191.703125 248.261719 189.289062 248.8125 185.898438 C 249.394531 182.328125 255.996094 184.148438 254.820312 188.285156 " fill-opacity="1" fill-rule="evenodd"/></g><g clip-path="url(#f3c91d644a)"><path fill="#ff914d" d="M 268.226562 184.03125 C 269.292969 183.832031 270.625 184.199219 271.121094 185.066406 C 272.492188 187.46875 269.964844 190.40625 267.472656 190.152344 C 266.105469 190.011719 265.316406 188.886719 265.222656 187.867188 C 265.019531 185.691406 266.625 184.328125 268.226562 184.03125 " fill-opacity="1" fill-rule="evenodd"/></g><g clip-path="url(#69f2757df9)"><path fill="#ff914d" d="M 259 187.246094 C 262.757812 186.621094 266.210938 189.238281 265.4375 193.675781 C 265.277344 194.597656 264.457031 195.894531 263.292969 195.960938 C 262.347656 196.011719 261.246094 195.125 260.074219 195.128906 C 258.617188 195.136719 257.46875 196.386719 256.105469 195.753906 C 254.960938 195.21875 254.496094 193.066406 254.710938 191.5 C 255.019531 189.242188 256.738281 187.625 259 187.246094 " fill-opacity="1" fill-rule="evenodd"/></g><g fill="#964716" fill-opacity="1"><g transform="translate(120.703826, 172.274185)"><g><path d="M 0.246094 -11.300781 C -0.0390625 -11.28125 -0.273438 -11.285156 -0.371094 -11.535156 C -0.371094 -11.535156 -0.390625 -11.542969 -0.382812 -11.5625 C -0.414062 -11.59375 -0.929688 -12.371094 -1.304688 -12.730469 C -1.683594 -13.089844 -2.640625 -13.605469 -3.332031 -13.871094 C -4.320312 -14.25 -5.054688 -14.511719 -5.914062 -14.453125 C -6.214844 -14.441406 -6.867188 -14.371094 -7.410156 -14.066406 C -7.890625 -13.820312 -8.3125 -13.445312 -8.476562 -13.019531 L -11.511719 -5.101562 C -11.535156 -5.046875 -11.480469 -5.023438 -11.421875 -5.003906 C -10.214844 -4.582031 -8.957031 -4.058594 -7.769531 -3.582031 L -5.472656 -2.699219 L -5.457031 -2.691406 C -5.167969 -2.605469 -1.851562 -1.3125 -1.535156 -1.1875 L -1.515625 -1.179688 L 0.03125 -0.585938 C 0.125 -0.550781 0.214844 -0.558594 0.242188 -0.632812 L 1.917969 -5.003906 C 1.941406 -5.058594 1.886719 -5.144531 1.792969 -5.179688 C 0.976562 -5.449219 0.125 -5.796875 -0.636719 -6.15625 C -0.824219 -6.226562 -0.789062 -6.535156 -0.644531 -6.585938 C -0.242188 -6.734375 2.007812 -6.683594 2.433594 -6.625 C 2.5 -6.621094 2.550781 -6.644531 2.570312 -6.703125 L 4.167969 -10.863281 C 4.195312 -10.941406 4.125 -11.03125 4.007812 -11.054688 C 3.640625 -11.109375 1.351562 -11.390625 0.246094 -11.300781 Z M -4.5 -8.535156 C -3.933594 -8.277344 -3.816406 -7.910156 -3.9375 -7.65625 C -4.0625 -7.382812 -4.34375 -7.492188 -4.519531 -7.539062 C -4.972656 -7.691406 -5.730469 -8.003906 -6.140625 -8.160156 C -6.367188 -8.246094 -6.589844 -8.332031 -6.738281 -8.390625 C -6.84375 -8.449219 -6.90625 -8.625 -6.847656 -8.773438 C -6.757812 -9.015625 -6.53125 -9.210938 -5.851562 -9.035156 C -5.425781 -8.914062 -5.007812 -8.773438 -4.5 -8.535156 Z M -4.5 -8.535156 "/></g></g></g><g fill="#964716" fill-opacity="1"><g transform="translate(125.985445, 159.060456)"><g><path d="M 4.9375 -8.164062 C 5.066406 -8.773438 4.953125 -9.441406 4.71875 -10.144531 C 4.371094 -11.152344 3.246094 -11.882812 2.34375 -12.46875 L -4.050781 -16.613281 C -4.101562 -16.648438 -4.171875 -16.644531 -4.207031 -16.59375 L -6.859375 -12.503906 C -6.890625 -12.453125 -6.875 -12.367188 -6.796875 -12.34375 C -6.316406 -12.054688 -5.828125 -11.738281 -5.371094 -11.417969 C -4.675781 -10.945312 -2.34375 -9.433594 -1.902344 -9.121094 C -1.460938 -8.8125 -0.898438 -8.539062 -0.722656 -8.070312 C -0.683594 -7.949219 -0.742188 -7.605469 -1.066406 -7.507812 C -1.390625 -7.410156 -1.949219 -7.722656 -2.425781 -7.984375 C -2.902344 -8.242188 -5.027344 -9.667969 -5.648438 -10.070312 C -6.277344 -10.457031 -6.898438 -10.859375 -7.519531 -11.261719 C -7.585938 -11.304688 -7.660156 -11.304688 -7.691406 -11.253906 L -10.203125 -7.378906 C -10.238281 -7.328125 -10.207031 -7.261719 -10.140625 -7.21875 L -4.839844 -3.78125 L -3.429688 -2.867188 C -2.808594 -2.464844 -1.542969 -1.738281 -0.445312 -1.8125 C 0.601562 -1.847656 1.71875 -2.652344 2.296875 -3.539062 L 4.132812 -6.375 C 4.296875 -6.628906 4.777344 -7.363281 4.9375 -8.164062 Z M 4.9375 -8.164062 "/></g></g></g><g fill="#964716" fill-opacity="1"><g transform="translate(133.927585, 147.18223)"><g><path d="M -0.46875 -17.050781 L -0.527344 -17.105469 C -0.570312 -17.148438 -0.640625 -17.136719 -0.679688 -17.09375 L -8.421875 -9.335938 C -8.464844 -9.292969 -8.464844 -9.238281 -8.421875 -9.195312 L -7.359375 -8.136719 C -6.921875 -7.726562 -3.285156 -4.097656 -3.03125 -3.8125 C -3.03125 -3.8125 -1.683594 -2.472656 -1.671875 -2.457031 C -1.261719 -2.105469 0.324219 -0.46875 0.324219 -0.46875 C 0.367188 -0.425781 0.4375 -0.410156 0.480469 -0.453125 L 4.449219 -4.429688 C 4.492188 -4.472656 4.476562 -4.542969 4.433594 -4.585938 C 3.8125 -5.148438 2.992188 -5.574219 2.652344 -6.222656 C 2.210938 -7.058594 2.425781 -7.015625 2.777344 -7.652344 C 3.257812 -8.472656 5.277344 -10.46875 5.617188 -10.808594 C 5.660156 -10.851562 5.660156 -10.933594 5.617188 -10.976562 C 5.617188 -10.976562 5.347656 -11.246094 5.347656 -11.246094 C 5.21875 -11.316406 3.550781 -13.039062 3.550781 -13.039062 C 3.507812 -13.082031 3.421875 -13.082031 3.378906 -13.039062 C 2.871094 -12.445312 0.980469 -10.492188 0.484375 -10.109375 C 0.0195312 -9.726562 -0.164062 -9.375 -0.660156 -9.753906 C -0.789062 -9.855469 -1.15625 -10.164062 -1.15625 -10.476562 C -1.15625 -10.871094 -0.507812 -11.523438 -0.0390625 -11.933594 C 0.441406 -12.386719 1.371094 -13.121094 2.332031 -14.085938 C 2.375 -14.125 2.390625 -14.199219 2.347656 -14.238281 L 1.867188 -14.71875 C 1.867188 -14.71875 1.328125 -15.199219 1.074219 -15.453125 C 0.5625 -15.964844 0.0820312 -16.472656 -0.425781 -16.980469 C -0.441406 -16.996094 -0.457031 -17.007812 -0.457031 -17.035156 C -0.46875 -17.050781 -0.46875 -17.050781 -0.46875 -17.050781 Z M -0.46875 -17.050781 "/></g></g></g><g fill="#964716" fill-opacity="1"><g transform="translate(144.148391, 137.227105)"><g><path d="M 7.828125 -5.457031 C 8.195312 -5.957031 8.363281 -6.613281 8.429688 -7.351562 C 8.527344 -8.414062 7.796875 -9.539062 7.207031 -10.441406 L 3.046875 -16.828125 C 3.015625 -16.878906 2.949219 -16.90625 2.898438 -16.871094 L -1.1875 -14.210938 C -1.238281 -14.175781 -1.257812 -14.09375 -1.195312 -14.039062 C -0.875 -13.582031 -0.558594 -13.09375 -0.269531 -12.613281 C 0.171875 -11.898438 1.6875 -9.570312 1.96875 -9.105469 C 2.246094 -8.644531 2.648438 -8.167969 2.617188 -7.667969 C 2.605469 -7.542969 2.414062 -7.25 2.074219 -7.292969 C 1.738281 -7.335938 1.355469 -7.847656 1.027344 -8.28125 C 0.699219 -8.710938 -0.664062 -10.878906 -1.070312 -11.496094 C -1.488281 -12.105469 -1.894531 -12.726562 -2.296875 -13.347656 C -2.339844 -13.414062 -2.40625 -13.441406 -2.457031 -13.410156 L -6.328125 -10.886719 C -6.378906 -10.855469 -6.378906 -10.785156 -6.335938 -10.714844 L -2.886719 -5.421875 L -1.96875 -4.015625 C -1.566406 -3.394531 -0.703125 -2.214844 0.332031 -1.835938 C 1.300781 -1.445312 2.648438 -1.722656 3.535156 -2.300781 L 6.367188 -4.144531 C 6.617188 -4.308594 7.355469 -4.789062 7.828125 -5.457031 Z M 7.828125 -5.457031 "/></g></g></g><g fill="#964716" fill-opacity="1"><g transform="translate(156.234743, 129.602018)"><g><path d="M 6.273438 -15.886719 L -0.589844 -13.234375 C -1.167969 -13.011719 -1.660156 -12.5625 -2.070312 -12.125 C -2.582031 -11.5625 -2.820312 -10.851562 -2.855469 -10.109375 C -2.933594 -8.8125 -2.585938 -7.46875 -1.75 -6.527344 C -1.308594 -6.054688 -0.707031 -5.664062 -0.0742188 -5.523438 C 0.761719 -5.351562 1.554688 -5.574219 2.34375 -5.921875 C 2.839844 -6.132812 4.265625 -6.941406 4.441406 -6.367188 C 4.53125 -6.082031 4.421875 -5.867188 4.207031 -5.699219 C 3.582031 -5.261719 1.507812 -4.417969 0.734375 -4.207031 C 0.585938 -4.148438 -0.21875 -3.839844 -0.625 -3.722656 C -0.71875 -3.6875 -0.78125 -3.578125 -0.746094 -3.484375 C -0.457031 -2.738281 -0.113281 -2.015625 0.117188 -1.246094 C 0.195312 -0.933594 0.292969 -0.628906 0.425781 -0.335938 C 0.464844 -0.242188 0.558594 -0.214844 0.632812 -0.246094 C 0.632812 -0.246094 6.503906 -2.53125 6.78125 -2.640625 C 7.148438 -2.804688 8.113281 -3.132812 8.820312 -3.6875 C 9.375 -4.136719 9.746094 -4.792969 9.828125 -5.1875 C 10.03125 -6.105469 9.855469 -6.894531 9.71875 -7.246094 C 8.804688 -9.617188 7.816406 -9.898438 7.121094 -10.144531 C 6.277344 -10.441406 5.414062 -10.234375 4.570312 -9.976562 C 3.734375 -9.695312 3.472656 -9.488281 2.757812 -9.339844 C 2.558594 -9.304688 2.207031 -9.210938 2.035156 -9.660156 C 1.855469 -10.125 2.617188 -10.484375 3.542969 -10.863281 C 4.167969 -11.128906 6.351562 -11.800781 7.617188 -12.246094 C 7.71875 -12.261719 7.753906 -12.382812 7.71875 -12.476562 C 7.585938 -12.769531 7.238281 -13.449219 7.121094 -13.746094 C 6.671875 -14.964844 6.683594 -15.101562 6.34375 -15.867188 C 6.320312 -15.878906 6.300781 -15.875 6.273438 -15.886719 Z M 6.273438 -15.886719 "/></g></g></g><g fill="#964716" fill-opacity="1"><g transform="translate(169.89416, 124.848803)"><g/></g></g><g fill="#964716" fill-opacity="1"><g transform="translate(175.565874, 123.422345)"><g><path d="M 10.660156 -13.34375 L 3.320312 -12.824219 C 2.703125 -12.78125 2.101562 -12.496094 1.582031 -12.199219 C 0.925781 -11.8125 0.488281 -11.199219 0.238281 -10.5 C -0.214844 -9.285156 -0.277344 -7.898438 0.242188 -6.753906 C 0.523438 -6.171875 0.984375 -5.621094 1.546875 -5.300781 C 2.300781 -4.894531 3.121094 -4.871094 3.976562 -4.972656 C 4.515625 -5.03125 6.113281 -5.382812 6.117188 -4.78125 C 6.117188 -4.480469 5.949219 -4.308594 5.695312 -4.210938 C 4.96875 -3.980469 2.738281 -3.78125 1.933594 -3.804688 C 1.777344 -3.792969 0.917969 -3.734375 0.496094 -3.742188 C 0.398438 -3.738281 0.304688 -3.648438 0.308594 -3.550781 C 0.367188 -2.753906 0.484375 -1.957031 0.480469 -1.15625 C 0.460938 -0.835938 0.464844 -0.515625 0.507812 -0.195312 C 0.515625 -0.0976562 0.597656 -0.0429688 0.679688 -0.046875 C 0.679688 -0.046875 6.960938 -0.511719 7.257812 -0.535156 C 7.65625 -0.582031 8.675781 -0.613281 9.515625 -0.933594 C 10.179688 -1.203125 10.722656 -1.722656 10.917969 -2.078125 C 11.382812 -2.890625 11.445312 -3.695312 11.417969 -4.074219 C 11.238281 -6.609375 10.375 -7.167969 9.785156 -7.609375 C 9.066406 -8.140625 8.179688 -8.195312 7.296875 -8.195312 C 6.417969 -8.171875 6.105469 -8.050781 5.378906 -8.117188 C 5.175781 -8.144531 4.8125 -8.160156 4.78125 -8.636719 C 4.746094 -9.136719 5.578125 -9.253906 6.574219 -9.34375 C 7.25 -9.414062 9.535156 -9.414062 10.875 -9.46875 C 10.976562 -9.457031 11.050781 -9.5625 11.042969 -9.664062 C 11 -9.980469 10.867188 -10.730469 10.84375 -11.050781 C 10.769531 -12.347656 10.824219 -12.472656 10.722656 -13.308594 C 10.703125 -13.328125 10.683594 -13.324219 10.660156 -13.34375 Z M 10.660156 -13.34375 "/></g></g></g><g fill="#964716" fill-opacity="1"><g transform="translate(189.737119, 122.620909)"><g><path d="M 13.242188 -10.828125 C 13.246094 -10.847656 13.207031 -10.851562 13.207031 -10.851562 L 2.351562 -12.351562 C 2.273438 -12.363281 2.191406 -12.375 2.175781 -12.253906 C 2.164062 -12.15625 1.804688 -9.703125 1.757812 -8.941406 C 1.75 -8.578125 1.632812 -7.585938 1.632812 -7.585938 L 1.628906 -7.566406 C 1.617188 -7.46875 1.683594 -7.355469 1.761719 -7.347656 C 1.761719 -7.347656 2.894531 -7.210938 3.246094 -7.140625 C 3.542969 -7.082031 3.808594 -6.960938 4.011719 -6.691406 C 4.25 -6.375 4.09375 -5.972656 4.078125 -5.554688 C 4.066406 -5.03125 3.292969 -0.59375 3.195312 0.238281 C 3.179688 0.359375 3.25 0.449219 3.328125 0.460938 L 8.855469 1.222656 C 8.953125 1.234375 9.042969 1.167969 9.058594 1.050781 C 9.101562 0.753906 9.863281 -5.058594 10.054688 -5.714844 C 10.125 -5.949219 10.277344 -6.027344 10.347656 -6.078125 C 10.625 -6.203125 11.777344 -5.902344 12.421875 -5.894531 C 12.503906 -5.902344 12.59375 -5.972656 12.589844 -6.09375 C 12.660156 -6.609375 12.769531 -7.117188 12.859375 -7.609375 C 13.046875 -8.675781 13.09375 -9.757812 13.242188 -10.828125 Z M 13.242188 -10.828125 "/></g></g></g><g fill="#964716" fill-opacity="1"><g transform="translate(203.767965, 124.759111)"><g><path d="M 12.066406 0.835938 C 12.101562 0.742188 12.050781 0.640625 11.976562 0.613281 C 10.984375 0.296875 7.800781 -0.65625 7.351562 -0.945312 C 6.992188 -1.179688 6.660156 -1.683594 7.074219 -2.066406 C 7.457031 -2.417969 8.164062 -2.078125 8.566406 -1.953125 C 9.011719 -1.835938 11.492188 -0.816406 12.375 -0.496094 C 12.453125 -0.46875 12.554688 -0.519531 12.582031 -0.59375 C 12.667969 -0.839844 12.730469 -1.007812 12.824219 -1.269531 L 13.386719 -2.832031 C 13.421875 -2.925781 13.371094 -3.027344 13.296875 -3.054688 C 13.035156 -3.152344 8.609375 -4.679688 8.363281 -4.875 C 8.144531 -5.039062 7.996094 -5.324219 8.113281 -5.601562 C 8.316406 -6.039062 8.851562 -5.996094 9.242188 -5.898438 C 10.253906 -5.703125 13.757812 -4.335938 13.757812 -4.335938 C 13.851562 -4.300781 13.933594 -4.355469 13.96875 -4.449219 C 13.96875 -4.449219 14.152344 -5.253906 14.308594 -5.625 C 14.441406 -6 14.886719 -7.117188 14.972656 -7.296875 C 15.066406 -7.5 15.171875 -7.734375 15.179688 -7.753906 C 15.1875 -7.835938 15.125 -7.902344 15.070312 -7.921875 L 5.042969 -11.53125 C 4.890625 -11.585938 4.730469 -11.492188 4.695312 -11.335938 C 4.289062 -9.378906 3.386719 -7.578125 2.695312 -5.722656 C 1.996094 -3.828125 1.316406 -1.949219 0.558594 -0.0742188 C 0.492188 0.0507812 0.5625 0.203125 0.714844 0.257812 L 10.875 3.914062 C 10.96875 3.945312 11.046875 3.910156 11.078125 3.816406 C 11.078125 3.816406 11.566406 2.226562 11.695312 1.871094 C 11.800781 1.570312 11.953125 1.15625 12.066406 0.835938 Z M 12.066406 0.835938 "/></g></g></g><g fill="#964716" fill-opacity="1"><g transform="translate(217.079527, 129.692345)"><g><path d="M 14.546875 -5.667969 C 14.480469 -5.707031 14.398438 -5.691406 14.355469 -5.621094 C 13.988281 -5.191406 13.660156 -4.710938 13.285156 -4.265625 C 12.949219 -3.882812 12.894531 -3.683594 12.242188 -3.101562 C 11.9375 -2.84375 11.539062 -3.144531 11.636719 -3.414062 C 12.011719 -4.453125 12.574219 -5.421875 13.125 -6.375 C 13.179688 -6.457031 13.160156 -6.542969 13.09375 -6.585938 L 11.925781 -7.320312 C 11.859375 -7.363281 11.777344 -7.34375 11.734375 -7.277344 C 11.074219 -6.417969 10.414062 -5.558594 9.660156 -4.777344 C 9.410156 -4.535156 8.984375 -4.757812 9.152344 -5.097656 C 9.601562 -6.070312 10.023438 -7.078125 10.539062 -8.007812 C 10.59375 -8.089844 10.574219 -8.175781 10.507812 -8.21875 L 7.160156 -10.332031 C 7.089844 -10.371094 6.996094 -10.335938 6.957031 -10.269531 L 6.933594 -10.234375 C 6.921875 -10.21875 6.914062 -10.203125 6.914062 -10.203125 C 6.394531 -8.96875 5.71875 -7.785156 5.105469 -6.589844 C 4.582031 -5.574219 4.101562 -4.550781 3.5625 -3.542969 C 3.101562 -2.628906 2.640625 -1.714844 2.199219 -0.789062 C 1.957031 -0.253906 1.714844 0.277344 1.519531 0.816406 C 1.492188 0.894531 1.511719 0.976562 1.5625 1.007812 L 5.128906 3.261719 C 5.179688 3.292969 5.261719 3.273438 5.332031 3.199219 C 5.652344 2.808594 5.597656 2.894531 5.941406 2.496094 C 6.410156 1.941406 6.8125 1.273438 7.394531 0.835938 C 7.6875 0.597656 7.957031 1.027344 7.777344 1.316406 C 7.152344 2.339844 6.910156 2.871094 6.472656 3.945312 C 6.445312 4.023438 6.464844 4.105469 6.515625 4.136719 L 9.980469 6.324219 C 10.050781 6.367188 10.144531 6.332031 10.1875 6.265625 C 10.449219 5.957031 10.667969 5.648438 10.933594 5.339844 C 11.292969 4.882812 11.796875 4.089844 12.164062 3.65625 C 12.527344 3.226562 12.996094 2.597656 14.4375 0.765625 C 15.683594 -0.835938 16.382812 -1.90625 17.753906 -3.40625 C 17.824219 -3.480469 17.828125 -3.597656 17.742188 -3.648438 Z M 14.546875 -5.667969 "/></g></g></g><g fill="#964716" fill-opacity="1"><g transform="translate(230.057419, 138.180458)"><g><path d="M 9.3125 7.765625 C 10.355469 6.039062 11.484375 4.34375 12.601562 2.628906 C 13.617188 1.074219 14.660156 -0.480469 15.832031 -1.9375 L 10.738281 -7.023438 C 10.46875 -6.8125 10.230469 -6.597656 9.945312 -6.402344 C 8.351562 -5.167969 6.625 -4.207031 4.988281 -3.015625 C 3.449219 -1.871094 1.921875 -0.679688 0.3125 0.339844 L 3.75 3.769531 C 4.246094 3.304688 4.753906 2.878906 5.277344 2.441406 C 5.898438 1.902344 6.195312 1.660156 6.519531 2.015625 C 6.972656 2.496094 6.691406 2.582031 6.40625 3.003906 C 6.039062 3.570312 5.773438 3.925781 5.265625 4.519531 C 5.164062 4.644531 5.023438 4.789062 4.910156 4.902344 L 8.761719 8.742188 C 8.945312 8.417969 9.128906 8.09375 9.3125 7.765625 Z M 10.277344 -1.917969 C 10.433594 -2.046875 10.585938 -1.949219 10.574219 -1.820312 C 10.546875 -1.425781 10.136719 -0.984375 9.785156 -0.605469 C 9.457031 -0.222656 8.894531 0.457031 8.695312 0.34375 C 8.652344 0.300781 8.539062 0.359375 8.511719 0.300781 C 8.496094 0.289062 8.496094 0.289062 8.484375 0.273438 C 7.960938 -0.277344 8.976562 -0.929688 10.277344 -1.917969 Z M 10.277344 -1.917969 "/></g></g></g><g fill="#964716" fill-opacity="1"><g transform="translate(240.334418, 148.762771)"><g><path d="M 8.984375 6.855469 C 9.136719 6.613281 9.277344 6.429688 9.539062 6.496094 C 9.539062 6.496094 9.554688 6.488281 9.566406 6.503906 C 9.609375 6.5 10.542969 6.539062 11.054688 6.445312 C 11.566406 6.355469 12.546875 5.882812 13.167969 5.484375 C 14.058594 4.90625 14.703125 4.464844 15.160156 3.742188 C 15.332031 3.488281 15.65625 2.921875 15.730469 2.300781 C 15.816406 1.769531 15.761719 1.210938 15.511719 0.824219 L 10.90625 -6.296875 C 10.875 -6.34375 10.824219 -6.3125 10.773438 -6.28125 C 9.722656 -5.550781 8.558594 -4.847656 7.472656 -4.167969 L 5.40625 -2.832031 L 5.390625 -2.820312 C 5.148438 -2.640625 2.152344 -0.726562 1.867188 -0.539062 L 1.847656 -0.527344 L 0.457031 0.371094 C 0.371094 0.425781 0.324219 0.503906 0.371094 0.570312 L 2.910156 4.5 C 2.945312 4.550781 3.042969 4.554688 3.128906 4.503906 C 3.828125 4 4.609375 3.519531 5.347656 3.113281 C 5.515625 3.003906 5.746094 3.210938 5.699219 3.363281 C 5.582031 3.769531 4.214844 5.558594 3.917969 5.871094 C 3.878906 5.921875 3.867188 5.976562 3.898438 6.027344 L 6.320312 9.769531 C 6.363281 9.835938 6.480469 9.832031 6.570312 9.75 C 6.832031 9.488281 8.40625 7.800781 8.984375 6.855469 Z M 9.546875 1.394531 C 9.003906 1.699219 8.640625 1.578125 8.507812 1.332031 C 8.359375 1.070312 8.613281 0.90625 8.753906 0.792969 C 9.144531 0.515625 9.84375 0.0859375 10.210938 -0.152344 C 10.414062 -0.285156 10.617188 -0.414062 10.75 -0.5 C 10.863281 -0.550781 11.039062 -0.496094 11.125 -0.363281 C 11.265625 -0.144531 11.289062 0.148438 10.746094 0.597656 C 10.398438 0.871094 10.039062 1.125 9.546875 1.394531 Z M 9.546875 1.394531 "/></g></g></g><g fill="#964716" fill-opacity="1"><g transform="translate(247.892162, 160.82459)"><g><path d="M 15.871094 6.378906 C 15.890625 6.371094 15.875 6.335938 15.875 6.335938 L 11.953125 -3.898438 C 11.925781 -3.972656 11.898438 -4.046875 11.785156 -4.003906 C 11.691406 -3.96875 9.367188 -3.097656 8.679688 -2.769531 C 8.359375 -2.605469 7.433594 -2.226562 7.433594 -2.226562 L 7.414062 -2.222656 C 7.320312 -2.183594 7.257812 -2.074219 7.285156 -2 C 7.285156 -2 7.710938 -0.941406 7.820312 -0.601562 C 7.910156 -0.3125 7.9375 -0.0234375 7.796875 0.289062 C 7.636719 0.648438 7.207031 0.707031 6.832031 0.894531 C 6.367188 1.136719 2.109375 2.597656 1.332031 2.914062 C 1.21875 2.957031 1.171875 3.0625 1.203125 3.136719 L 3.199219 8.34375 C 3.234375 8.4375 3.339844 8.484375 3.449219 8.441406 C 3.730469 8.335938 9.1875 6.199219 9.855469 6.050781 C 10.09375 6 10.238281 6.097656 10.316406 6.132812 C 10.558594 6.316406 10.851562 7.46875 11.152344 8.039062 C 11.203125 8.105469 11.304688 8.152344 11.410156 8.089844 C 11.894531 7.902344 12.394531 7.753906 12.867188 7.59375 C 13.890625 7.246094 14.863281 6.765625 15.871094 6.378906 Z M 15.871094 6.378906 "/></g></g></g><g fill="#964716" fill-opacity="1"><g transform="translate(112.763172, 208.777855)"><g><path d="M 12.179688 8.34375 C 12.945312 7.980469 14.117188 7.203125 14.496094 6.128906 C 14.882812 5.027344 14.730469 4.382812 14.570312 3.90625 L 12.101562 -3.40625 C 12.078125 -3.480469 12.050781 -3.492188 11.976562 -3.46875 C 11.558594 -3.328125 11.144531 -3.1875 10.726562 -3.046875 C 8.589844 -2.304688 6.480469 -1.550781 4.339844 -0.832031 C 3.28125 -0.472656 0.375 0.421875 0.375 0.421875 C 0.261719 0.460938 0.171875 0.574219 0.203125 0.667969 L 1.667969 5.007812 C 1.707031 5.121094 1.84375 5.160156 1.976562 5.113281 C 2.386719 4.957031 3.019531 4.761719 3.347656 4.671875 C 3.917969 4.546875 4.125 4.601562 4.3125 5.152344 C 4.453125 5.566406 5.222656 7.164062 5.785156 7.648438 C 6.058594 7.894531 6.433594 8.316406 7.332031 8.730469 C 8.207031 9.132812 9.066406 9.117188 9.78125 9.046875 C 10.203125 8.988281 11.785156 8.539062 12.179688 8.34375 Z M 10.445312 3.632812 C 10.167969 3.746094 8.796875 4.1875 8.394531 4.300781 C 8.160156 4.359375 7.667969 4.527344 7.480469 3.976562 C 7.296875 3.425781 7.941406 3.210938 8.21875 3.09375 C 8.503906 3 9.757812 2.597656 10.105469 2.5 C 10.300781 2.457031 10.972656 2.25 11.15625 2.800781 C 11.335938 3.332031 10.703125 3.523438 10.445312 3.632812 Z M 10.445312 3.632812 "/></g></g></g><g fill="#964716" fill-opacity="1"><g transform="translate(117.608528, 222.494295)"><g><path d="M 8.585938 8.519531 C 8.675781 8.46875 8.703125 8.359375 8.664062 8.292969 C 8.121094 7.40625 6.332031 4.601562 6.183594 4.089844 C 6.0625 3.675781 6.140625 3.078125 6.707031 3.0625 C 7.222656 3.042969 7.535156 3.761719 7.761719 4.117188 C 8.019531 4.5 9.230469 6.894531 9.691406 7.710938 C 9.730469 7.78125 9.839844 7.8125 9.910156 7.773438 C 10.136719 7.644531 10.292969 7.558594 10.539062 7.417969 L 11.984375 6.605469 C 12.070312 6.554688 12.101562 6.445312 12.0625 6.378906 C 11.925781 6.132812 9.574219 2.085938 9.515625 1.777344 C 9.457031 1.511719 9.53125 1.191406 9.800781 1.0625 C 10.238281 0.863281 10.617188 1.246094 10.847656 1.574219 C 11.488281 2.386719 13.246094 5.710938 13.246094 5.710938 C 13.296875 5.796875 13.394531 5.808594 13.480469 5.761719 C 13.480469 5.761719 14.148438 5.269531 14.503906 5.09375 C 14.855469 4.894531 15.917969 4.339844 16.101562 4.261719 C 16.304688 4.171875 16.539062 4.058594 16.558594 4.050781 C 16.617188 3.992188 16.613281 3.90625 16.582031 3.851562 L 11.351562 -5.433594 C 11.273438 -5.570312 11.09375 -5.609375 10.964844 -5.511719 C 9.375 -4.296875 7.515625 -3.523438 5.78125 -2.570312 C 4.011719 -1.59375 2.269531 -0.613281 0.472656 0.308594 C 0.339844 0.359375 0.292969 0.523438 0.371094 0.660156 L 5.671875 10.070312 C 5.722656 10.15625 5.804688 10.179688 5.890625 10.128906 C 5.890625 10.128906 7.296875 9.246094 7.628906 9.058594 C 7.90625 8.902344 8.289062 8.6875 8.585938 8.519531 Z M 8.585938 8.519531 "/></g></g></g><g fill="#964716" fill-opacity="1"><g transform="translate(124.896512, 235.012719)"><g><path d="M 17.085938 0.816406 C 17.101562 0.804688 17.074219 0.773438 17.074219 0.773438 L 10.011719 -7.605469 C 9.960938 -7.664062 9.910156 -7.726562 9.820312 -7.648438 C 9.742188 -7.585938 7.832031 -6 7.292969 -5.464844 C 7.042969 -5.203125 6.289062 -4.542969 6.289062 -4.542969 L 6.273438 -4.53125 C 6.199219 -4.464844 6.171875 -4.339844 6.226562 -4.28125 C 6.226562 -4.28125 6.976562 -3.421875 7.191406 -3.132812 C 7.371094 -2.890625 7.488281 -2.625 7.460938 -2.289062 C 7.425781 -1.894531 7.042969 -1.699219 6.746094 -1.398438 C 6.386719 -1.015625 2.84375 1.761719 2.214844 2.316406 C 2.125 2.394531 2.113281 2.507812 2.164062 2.570312 L 5.761719 6.832031 C 5.824219 6.910156 5.9375 6.917969 6.027344 6.84375 C 6.257812 6.648438 10.710938 2.84375 11.296875 2.480469 C 11.503906 2.355469 11.671875 2.398438 11.757812 2.40625 C 12.046875 2.503906 12.699219 3.496094 13.171875 3.933594 C 13.242188 3.980469 13.351562 3.988281 13.433594 3.898438 C 13.828125 3.5625 14.253906 3.257812 14.648438 2.953125 C 15.5 2.285156 16.261719 1.511719 17.085938 0.816406 Z M 17.085938 0.816406 "/></g></g></g><g fill="#964716" fill-opacity="1"><g transform="translate(134.277236, 245.530929)"><g/></g></g><g fill="#964716" fill-opacity="1"><g transform="translate(138.19448, 249.35032)"><g><path d="M 16.707031 -3.542969 L 10.707031 -7.800781 C 10.199219 -8.160156 9.554688 -8.324219 8.964844 -8.421875 C 8.214844 -8.539062 7.488281 -8.34375 6.847656 -7.960938 C 5.726562 -7.3125 4.796875 -6.28125 4.472656 -5.0625 C 4.324219 -4.433594 4.328125 -3.71875 4.5625 -3.113281 C 4.882812 -2.320312 5.503906 -1.78125 6.230469 -1.316406 C 6.679688 -1.019531 8.140625 -0.28125 7.761719 0.1875 C 7.570312 0.417969 7.332031 0.445312 7.074219 0.359375 C 6.367188 0.078125 4.515625 -1.183594 3.910156 -1.710938 C 3.78125 -1.804688 3.078125 -2.300781 2.761719 -2.578125 C 2.679688 -2.636719 2.550781 -2.628906 2.492188 -2.546875 C 2.03125 -1.894531 1.617188 -1.207031 1.105469 -0.589844 C 0.886719 -0.351562 0.683594 -0.101562 0.515625 0.171875 C 0.457031 0.25 0.488281 0.347656 0.554688 0.394531 C 0.554688 0.394531 5.703125 4.019531 5.949219 4.195312 C 6.285156 4.410156 7.09375 5.03125 7.945312 5.316406 C 8.628906 5.53125 9.378906 5.476562 9.753906 5.324219 C 10.628906 4.992188 11.191406 4.40625 11.410156 4.097656 C 12.878906 2.027344 12.570312 1.046875 12.390625 0.332031 C 12.171875 -0.535156 11.523438 -1.140625 10.839844 -1.699219 C 10.144531 -2.242188 9.828125 -2.34375 9.308594 -2.859375 C 9.167969 -3.007812 8.898438 -3.25 9.175781 -3.640625 C 9.464844 -4.046875 10.183594 -3.609375 11.011719 -3.046875 C 11.578125 -2.671875 13.34375 -1.222656 14.414062 -0.414062 C 14.484375 -0.339844 14.609375 -0.375 14.664062 -0.457031 C 14.835938 -0.730469 15.207031 -1.394531 15.394531 -1.65625 C 16.160156 -2.707031 16.28125 -2.769531 16.734375 -3.476562 C 16.730469 -3.503906 16.710938 -3.515625 16.707031 -3.542969 Z M 16.707031 -3.542969 "/></g></g></g><g fill="#964716" fill-opacity="1"><g transform="translate(150.093671, 257.542826)"><g><path d="M 15.855469 -6.445312 C 15.882812 -6.496094 15.84375 -6.558594 15.808594 -6.574219 L 11.386719 -8.597656 C 11.335938 -8.621094 11.273438 -8.585938 11.238281 -8.511719 C 11.109375 -8.175781 10.511719 -6.734375 10.3125 -6.296875 C 10.023438 -5.660156 9.835938 -5.0625 9.316406 -5.171875 C 8.792969 -5.277344 8.609375 -5.648438 9.058594 -6.628906 C 9.226562 -6.992188 9.863281 -8.4375 10.167969 -9.003906 C 10.199219 -9.074219 10.171875 -9.15625 10.117188 -9.179688 L 5.789062 -11.160156 C 5.734375 -11.183594 5.65625 -11.15625 5.640625 -11.074219 C 4.859375 -9.277344 1.613281 -1.746094 0.566406 0.105469 C 0.535156 0.179688 0.546875 0.25 0.617188 0.28125 L 4.925781 2.253906 C 5 2.289062 5.0625 2.25 5.09375 2.175781 C 5.351562 1.613281 5.554688 1.023438 5.832031 0.46875 C 6.050781 0.0429688 6.605469 -1.265625 7.132812 -1.023438 C 7.660156 -0.78125 7.136719 0.453125 6.90625 1.003906 C 6.710938 1.53125 6.230469 2.628906 6.195312 2.703125 C 6.171875 2.757812 6.183594 2.828125 6.238281 2.855469 L 10.527344 4.816406 C 10.582031 4.84375 10.660156 4.8125 10.6875 4.757812 C 10.734375 4.648438 12.542969 0.792969 13.351562 -0.96875 C 14.160156 -2.734375 15.847656 -6.425781 15.855469 -6.445312 Z M 15.855469 -6.445312 "/></g></g></g><g fill="#964716" fill-opacity="1"><g transform="translate(163.423001, 263.407068)"><g><path d="M 13.339844 -5.644531 C 13.589844 -6.65625 13.34375 -7.910156 12.8125 -8.761719 C 12.261719 -9.617188 11.492188 -10.097656 10.484375 -10.34375 C 9.472656 -10.59375 6.929688 -11.222656 6.890625 -11.230469 C 5.792969 -11.359375 5.117188 -11.300781 4.089844 -10.648438 C 3.480469 -10.261719 2.886719 -9.523438 2.605469 -8.378906 C 2.320312 -7.234375 1.585938 -4.261719 1.40625 -3.523438 C 1.222656 -2.789062 1.539062 -1.390625 1.902344 -0.785156 C 2.328125 -0.0859375 3.183594 0.703125 4.210938 1.039062 C 4.308594 1.0625 6.503906 1.605469 6.792969 1.675781 C 7.941406 1.960938 8.601562 1.773438 9.363281 1.53125 C 10.011719 1.320312 10.636719 0.957031 11.121094 0.417969 C 11.703125 -0.179688 12.136719 -0.773438 12.386719 -1.78125 C 12.632812 -2.792969 13.09375 -4.65625 13.339844 -5.644531 Z M 6.304688 -3.675781 C 6.550781 -4.683594 6.863281 -5.945312 6.941406 -6.339844 C 7.015625 -6.648438 7.242188 -7.316406 7.902344 -7.152344 C 8.425781 -7.023438 8.394531 -6.558594 8.261719 -5.929688 C 8.128906 -5.222656 7.765625 -4.015625 7.527344 -3.042969 C 7.449219 -2.734375 7.222656 -2.148438 6.699219 -2.28125 C 6.292969 -2.378906 6.058594 -2.683594 6.304688 -3.675781 Z M 6.304688 -3.675781 "/></g></g></g><g fill="#964716" fill-opacity="1"><g transform="translate(177.393336, 266.655677)"><g><path d="M 12.269531 -8.214844 C 12.214844 -9.058594 11.929688 -10.4375 11.070312 -11.183594 C 10.191406 -11.953125 9.535156 -12.050781 9.035156 -12.078125 L 1.332031 -12.503906 C 1.25 -12.507812 1.230469 -12.488281 1.226562 -12.410156 C 1.199219 -11.96875 1.175781 -11.53125 1.152344 -11.089844 C 1.046875 -8.832031 0.964844 -6.59375 0.839844 -4.339844 C 0.777344 -3.222656 0.53125 -0.191406 0.53125 -0.191406 C 0.523438 -0.0703125 0.597656 0.0546875 0.699219 0.0585938 L 5.269531 0.3125 C 5.390625 0.316406 5.476562 0.203125 5.484375 0.0625 C 5.488281 -0.378906 5.542969 -1.035156 5.582031 -1.375 C 5.675781 -1.949219 5.804688 -2.121094 6.382812 -2.089844 C 6.824219 -2.066406 8.589844 -2.191406 9.25 -2.535156 C 9.582031 -2.695312 10.113281 -2.886719 10.832031 -3.566406 C 11.527344 -4.230469 11.832031 -5.035156 12.03125 -5.726562 C 12.132812 -6.140625 12.304688 -7.773438 12.269531 -8.214844 Z M 7.25 -8.351562 C 7.253906 -8.050781 7.152344 -6.613281 7.109375 -6.195312 C 7.078125 -5.957031 7.046875 -5.4375 6.46875 -5.46875 C 5.890625 -5.503906 5.929688 -6.179688 5.925781 -6.480469 C 5.941406 -6.78125 6.035156 -8.097656 6.074219 -8.457031 C 6.105469 -8.65625 6.164062 -9.351562 6.742188 -9.320312 C 7.300781 -9.289062 7.246094 -8.632812 7.25 -8.351562 Z M 7.25 -8.351562 "/></g></g></g><g fill="#964716" fill-opacity="1"><g transform="translate(191.586526, 267.041825)"><g/></g></g><g fill="#964716" fill-opacity="1"><g transform="translate(197.049454, 266.801278)"><g><path d="M 10.484375 -7.089844 C 10.480469 -7.109375 10.457031 -7.125 10.417969 -7.117188 C 10.144531 -7.042969 8.515625 -6.632812 7.753906 -6.457031 C 6.996094 -6.285156 6.554688 -6.234375 5.800781 -6.144531 C 5.582031 -6.101562 5.335938 -6.214844 5.269531 -6.445312 C 5.222656 -6.679688 5.308594 -6.863281 5.617188 -6.945312 C 6.066406 -7.035156 8.671875 -7.582031 8.863281 -7.640625 L 8.882812 -7.644531 C 9.1875 -7.746094 9.53125 -7.773438 9.390625 -8.359375 C 9.285156 -8.886719 8.882812 -8.96875 8.625 -8.917969 C 8.140625 -8.800781 5.761719 -8.359375 5.414062 -8.351562 C 5.210938 -8.351562 4.984375 -8.265625 4.851562 -8.421875 C 4.722656 -8.558594 4.707031 -8.921875 5.042969 -9.09375 C 5.34375 -9.214844 6.363281 -9.523438 7.089844 -9.667969 C 7.984375 -9.871094 9.503906 -10.132812 9.742188 -10.160156 C 9.761719 -10.164062 9.777344 -10.191406 9.773438 -10.210938 C 9.765625 -10.25 9.375 -11.882812 9.265625 -12.636719 C 9.261719 -12.65625 9.238281 -12.671875 9.199219 -12.664062 L 6.765625 -12.171875 C 6.726562 -12.164062 6.703125 -12.179688 6.695312 -12.21875 C 6.695312 -12.21875 6.554688 -12.722656 6.472656 -13.132812 C 6.382812 -13.566406 6.332031 -14.023438 6.332031 -14.023438 C 6.324219 -14.0625 6.296875 -14.097656 6.277344 -14.09375 L 0.652344 -12.960938 C 0.613281 -12.953125 0.601562 -12.910156 0.609375 -12.871094 C 0.609375 -12.871094 0.722656 -12.609375 0.839844 -12.039062 C 0.96875 -11.394531 0.972656 -11.066406 0.972656 -11.066406 C 0.980469 -11.027344 0.964844 -11.003906 0.945312 -11 C 0.945312 -11 -0.0234375 -10.640625 -0.320312 -10.398438 C -0.570312 -10.226562 -0.851562 -9.902344 -0.964844 -9.65625 C -1.214844 -9.078125 -1.273438 -8.757812 -1.1875 -8.328125 L -1.082031 -7.796875 C -0.953125 -7.171875 -0.175781 -6.738281 -0.0429688 -6.703125 C 0.128906 -6.65625 0.191406 -6.441406 0.09375 -6.320312 C -0.191406 -5.917969 -0.585938 -5.347656 -0.449219 -4.660156 L -0.296875 -3.898438 C -0.214844 -3.503906 0.0195312 -3.144531 0.644531 -2.78125 C 1.085938 -2.503906 2.085938 -2.601562 2.617188 -2.710938 C 2.675781 -2.722656 2.742188 -2.695312 2.753906 -2.636719 C 2.742188 -2.59375 2.730469 -2.652344 2.886719 -1.867188 C 3.046875 -1.082031 3.066406 -0.679688 3.066406 -0.679688 C 3.074219 -0.640625 3.097656 -0.625 3.136719 -0.632812 L 8.761719 -1.765625 C 8.78125 -1.769531 8.796875 -1.792969 8.789062 -1.832031 C 8.789062 -1.832031 8.722656 -2.0625 8.546875 -2.824219 C 8.394531 -3.589844 8.390625 -3.8125 8.390625 -3.8125 C 8.382812 -3.851562 8.398438 -3.875 8.417969 -3.878906 L 10.964844 -4.390625 C 10.984375 -4.394531 11 -4.417969 10.996094 -4.4375 C 10.902344 -5.011719 10.542969 -6.792969 10.484375 -7.089844 Z M 10.484375 -7.089844 "/></g></g></g><g fill="#964716" fill-opacity="1"><g transform="translate(210.744441, 263.646849)"><g/></g></g><g fill="#964716" fill-opacity="1"><g transform="translate(215.978197, 262.047483)"><g><path d="M 8.214844 -9.859375 C 8.160156 -9.925781 8.0625 -9.941406 7.988281 -9.90625 C 7.917969 -9.871094 4.878906 -8.261719 4.121094 -7.984375 C 3.636719 -7.792969 3.476562 -7.714844 2.949219 -7.746094 C 2.691406 -7.777344 2.414062 -7.976562 2.273438 -8.21875 C 2.132812 -8.507812 2.230469 -9.085938 2.933594 -9.429688 C 3.28125 -9.578125 6.683594 -11.363281 7.175781 -11.582031 C 7.265625 -11.625 7.304688 -11.730469 7.261719 -11.820312 C 7.261719 -11.820312 5.886719 -14.464844 5.730469 -14.921875 C 5.679688 -15.03125 5.652344 -15.128906 5.609375 -15.21875 L 5.152344 -16.15625 C 5.109375 -16.246094 4.832031 -16.308594 4.742188 -16.265625 L -0.0234375 -13.949219 C -1.351562 -13.304688 -2.785156 -12.363281 -3.179688 -11.304688 C -3.4375 -10.644531 -3.636719 -9.949219 -3.5625 -9.25 C -3.464844 -8.542969 -3.222656 -7.726562 -2.835938 -6.9375 C -2.445312 -6.125 -2.828125 -6.917969 -2.820312 -6.898438 L -1.769531 -4.742188 C -1.394531 -3.96875 -0.910156 -3.246094 0.199219 -2.5625 C 0.714844 -2.238281 1.4375 -2.078125 2.089844 -2.015625 C 2.722656 -1.945312 3.867188 -1.878906 6.152344 -2.988281 L 10.359375 -5.035156 C 10.449219 -5.078125 10.484375 -5.183594 10.441406 -5.273438 L 9.910156 -6.371094 C 9.390625 -7.210938 8.464844 -9.292969 8.214844 -9.859375 Z M 8.214844 -9.859375 "/></g></g></g><g fill="#964716" fill-opacity="1"><g transform="translate(228.935831, 255.52275)"><g><path d="M 8.21875 -8.617188 C 7.949219 -8.941406 7.699219 -9.277344 7.464844 -9.625 C 7.3125 -9.863281 6.78125 -10.613281 6.730469 -10.675781 C 6.671875 -10.757812 6.625 -10.71875 6.609375 -10.707031 C 6.035156 -10.304688 4.5625 -9.035156 4.105469 -8.746094 C 3.785156 -8.507812 2.761719 -7.667969 2.476562 -7.753906 C 2.175781 -7.855469 1.984375 -8.210938 1.765625 -8.472656 C 1.574219 -8.730469 0.632812 -10.09375 0.320312 -10.511719 C -0.0273438 -10.949219 -0.351562 -11.382812 -0.703125 -11.820312 C -1.21875 -12.480469 -1.769531 -13.117188 -2.273438 -13.792969 C -2.320312 -13.855469 -2.402344 -13.867188 -2.453125 -13.832031 L -6.957031 -10.476562 C -7.003906 -10.441406 -7.011719 -10.382812 -6.964844 -10.320312 C -6.769531 -9.992188 -6.527344 -9.699219 -6.285156 -9.40625 C -5.992188 -9.046875 -5.71875 -8.679688 -5.460938 -8.300781 C -4.855469 -7.453125 -4.234375 -6.621094 -3.613281 -5.785156 L 0.125 -0.765625 C 0.136719 -0.75 0.148438 -0.734375 0.164062 -0.71875 C 0.175781 -0.703125 0.175781 -0.703125 0.1875 -0.6875 L 0.367188 -0.445312 C 0.414062 -0.382812 0.480469 -0.359375 0.527344 -0.394531 L 9.363281 -6.976562 C 9.410156 -7.011719 9.40625 -7.085938 9.359375 -7.148438 C 9.359375 -7.148438 8.421875 -8.34375 8.21875 -8.617188 Z M 8.21875 -8.617188 "/></g></g></g><g fill="#964716" fill-opacity="1"><g transform="translate(240.197473, 246.694703)"><g><path d="M -8.523438 -9.238281 C -8.523438 -9.210938 -8.523438 -9.179688 -8.511719 -9.140625 C -7.957031 -8.589844 -4.570312 -5.332031 -3.445312 -4.25 C -2.679688 -3.519531 -0.078125 -1.03125 0.324219 -0.441406 C 0.351562 -0.414062 0.40625 -0.414062 0.4375 -0.441406 L 4.414062 -4.464844 C 4.496094 -4.550781 4.496094 -4.691406 4.410156 -4.777344 C 3.6875 -5.378906 2.988281 -5.984375 2.308594 -6.628906 C 1.511719 -7.390625 -3.023438 -11.703125 -4.320312 -13.179688 C -4.40625 -13.265625 -4.546875 -13.261719 -4.632812 -13.179688 Z M -8.523438 -9.238281 "/></g></g></g><g fill="#964716" fill-opacity="1"><g transform="translate(246.578123, 240.318332)"><g><path d="M 2.316406 -12.894531 C 0.484375 -14.222656 -1.304688 -15.570312 -3.132812 -16.894531 C -3.148438 -16.90625 -3.164062 -16.917969 -3.179688 -16.929688 C -3.195312 -16.941406 -3.222656 -16.9375 -3.238281 -16.921875 L -6.007812 -13.101562 C -6.019531 -13.085938 -6.015625 -13.058594 -6 -13.046875 C -5.285156 -12.53125 -3.984375 -11.636719 -3.351562 -11.078125 C -3.234375 -10.96875 -3.140625 -10.824219 -3.1875 -10.6875 C -3.226562 -10.566406 -3.359375 -10.488281 -3.523438 -10.535156 C -4.433594 -10.777344 -5.921875 -11.585938 -6.847656 -11.910156 C -6.863281 -11.921875 -6.875 -11.90625 -6.886719 -11.890625 L -9.839844 -7.855469 C -9.851562 -7.839844 -9.847656 -7.8125 -9.8125 -7.789062 C -9.8125 -7.789062 -6.542969 -5.488281 -5.03125 -4.367188 C -3.253906 -3.074219 -1.523438 -1.746094 0.257812 -0.457031 C 0.289062 -0.433594 0.304688 -0.421875 0.328125 -0.453125 L 3.015625 -4.160156 C 3.03125 -4.175781 3.023438 -4.203125 3.007812 -4.214844 C 2.3125 -4.71875 1.277344 -5.371094 0.621094 -5.898438 C 0.359375 -6.113281 0.367188 -6.5 0.6875 -6.464844 C 1.289062 -6.375 2.191406 -5.847656 2.855469 -5.636719 C 3.183594 -5.546875 3.5 -5.4375 3.824219 -5.304688 C 3.851562 -5.308594 3.851562 -5.308594 3.863281 -5.324219 L 6.890625 -9.5 C 6.902344 -9.515625 6.898438 -9.542969 6.882812 -9.554688 C 6.644531 -9.703125 3.609375 -11.957031 2.316406 -12.894531 Z M 2.316406 -12.894531 "/></g></g></g><g fill="#964716" fill-opacity="1"><g transform="translate(254.749312, 228.443789)"><g><path d="M -10.894531 -6.269531 C -10.886719 -6.242188 -10.878906 -6.214844 -10.851562 -6.179688 C -10.160156 -5.820312 -5.957031 -3.722656 -4.558594 -3.023438 C -3.609375 -2.558594 -0.382812 -0.960938 0.175781 -0.515625 C 0.210938 -0.5 0.265625 -0.515625 0.285156 -0.550781 L 2.875 -5.582031 C 2.929688 -5.6875 2.886719 -5.820312 2.78125 -5.878906 C 1.910156 -6.238281 1.0625 -6.605469 0.21875 -7.015625 C -0.765625 -7.503906 -6.386719 -10.265625 -8.0625 -11.285156 C -8.167969 -11.339844 -8.304688 -11.296875 -8.359375 -11.191406 Z M -10.894531 -6.269531 "/></g></g></g><g fill="#964716" fill-opacity="1"><g transform="translate(258.923184, 220.451175)"><g><path d="M -1.269531 -12.769531 C -1.351562 -12.777344 -1.433594 -12.71875 -1.457031 -12.644531 C -1.484375 -12.570312 -2.46875 -9.269531 -2.800781 -8.539062 C -3.003906 -8.058594 -3.0625 -7.886719 -3.453125 -7.535156 C -3.65625 -7.371094 -3.992188 -7.316406 -4.261719 -7.386719 C -4.566406 -7.488281 -4.914062 -7.964844 -4.664062 -8.703125 C -4.523438 -9.054688 -3.410156 -12.734375 -3.222656 -13.238281 C -3.1875 -13.332031 -3.238281 -13.433594 -3.332031 -13.464844 C -3.332031 -13.464844 -6.183594 -14.339844 -6.617188 -14.550781 C -6.730469 -14.589844 -6.820312 -14.640625 -6.914062 -14.671875 L -7.902344 -15.003906 C -7.996094 -15.035156 -8.234375 -14.886719 -8.269531 -14.789062 L -9.960938 -9.769531 C -10.433594 -8.367188 -10.765625 -6.6875 -10.289062 -5.660156 C -10 -5.015625 -9.640625 -4.386719 -9.09375 -3.949219 C -8.519531 -3.523438 -7.765625 -3.121094 -6.933594 -2.84375 C -6.082031 -2.554688 -6.914062 -2.835938 -6.894531 -2.828125 L -4.621094 -2.0625 C -3.808594 -1.789062 -2.953125 -1.628906 -1.6875 -1.941406 C -1.09375 -2.078125 -0.472656 -2.480469 0.0273438 -2.902344 C 0.523438 -3.304688 1.371094 -4.074219 2.183594 -6.480469 L 3.675781 -10.914062 C 3.707031 -11.007812 3.660156 -11.109375 3.5625 -11.140625 L 2.40625 -11.53125 C 1.445312 -11.75 -0.6875 -12.554688 -1.269531 -12.769531 Z M -1.269531 -12.769531 "/></g></g></g></svg>